NotoSansDisplay-Bold.ufo
<glyph name="uni0191" format="2">
  <advance width="675"/>
  <unicode hex="0191"/>
  <anchor x="234" y="0" name="bottom"/>
  <anchor x="450" y="714" name="top"/>
  <anchor x="667" y="714" name="topright"/>
  <outline>
    <contour>
      <point x="231" y="-15" type="curve" smooth="yes"/>
      <point x="393" y="-15"/>
      <point x="473" y="74"/>
      <point x="473" y="223" type="curve" smooth="yes"/>
      <point x="473" y="288" type="line"/>
      <point x="628" y="288" type="line"/>
      <point x="628" y="447" type="line"/>
      <point x="473" y="447" type="line"/>
      <point x="473" y="555" type="line"/>
      <point x="643" y="555" type="line"/>
      <point x="643" y="714" type="line"/>
      <point x="267" y="714" type="line"/>
      <point x="267" y="211" type="line" smooth="yes"/>
      <point x="267" y="156"/>
      <point x="252" y="122"/>
      <point x="214" y="122" type="curve" smooth="yes"/>
      <point x="183" y="122"/>
      <point x="165" y="142"/>
      <point x="165" y="169" type="curve" smooth="yes"/>
      <point x="165" y="185"/>
      <point x="166" y="194"/>
      <point x="172" y="207" type="curve"/>
      <point x="27" y="252" type="line"/>
      <point x="17" y="236"/>
      <point x="7" y="205"/>
      <point x="7" y="172" type="curve" smooth="yes"/>
      <point x="7" y="50"/>
      <point x="91" y="-15"/>
    </contour>
  </outline>
</glyph>
<glyph name="florin" format="2">
  <advance width="572"/>
  <unicode hex="0192"/>
  <anchor x="216" y="0" name="bottom"/>
  <anchor x="433" y="765" name="top"/>
  <anchor x="585" y="765" name="topright"/>
  <outline>
    <contour>
      <point x="214" y="-16" type="curve" smooth="yes"/>
      <point x="356" y="-16"/>
      <point x="458" y="57"/>
      <point x="458" y="206" type="curve" smooth="yes"/>
      <point x="458" y="410" type="line"/>
      <point x="563" y="410" type="line"/>
      <point x="563" y="553" type="line"/>
      <point x="458" y="553" type="line"/>
      <point x="458" y="568" type="line" smooth="yes"/>
      <point x="458" y="608"/>
      <point x="467" y="625"/>
      <point x="488" y="625" type="curve" smooth="yes"/>
      <point x="509" y="625"/>
      <point x="529" y="620"/>
      <point x="545" y="615" type="curve"/>
      <point x="585" y="739" type="line"/>
      <point x="526" y="756"/>
      <point x="489" y="765"/>
      <point x="436" y="765" type="curve" smooth="yes"/>
      <point x="301" y="765"/>
      <point x="262" y="703"/>
      <point x="262" y="560" type="curve" smooth="yes"/>
      <point x="262" y="551" type="line"/>
      <point x="192" y="504" type="line"/>
      <point x="192" y="410" type="line"/>
      <point x="256" y="410" type="line"/>
      <point x="256" y="196" type="line" smooth="yes"/>
      <point x="256" y="145"/>
      <point x="238" y="120"/>
      <point x="204" y="120" type="curve" smooth="yes"/>
      <point x="176" y="120"/>
      <point x="155" y="137"/>
      <point x="155" y="169" type="curve" smooth="yes"/>
      <point x="155" y="183"/>
      <point x="157" y="193"/>
      <point x="162" y="207" type="curve"/>
      <point x="18" y="252" type="line"/>
      <point x="7" y="233"/>
      <point x="-3" y="206"/>
      <point x="-3" y="172" type="curve" smooth="yes"/>
      <point x="-3" y="58"/>
      <point x="74" y="-16"/>
    </contour>
  </outline>
</glyph>
<glyph name="uni01C2" format="2">
  <advance width="486"/>
  <unicode hex="01C2"/>
  <anchor x="243" y="0" name="bottom"/>
  <anchor x="243" y="760" name="top"/>
  <outline>
    <contour>
      <point x="322" y="760" type="line"/>
      <point x="163" y="760" type="line"/>
      <point x="163" y="562" type="line"/>
      <point x="37" y="562" type="line"/>
      <point x="37" y="426" type="line"/>
      <point x="163" y="426" type="line"/>
      <point x="163" y="354" type="line"/>
      <point x="37" y="354" type="line"/>
      <point x="37" y="218" type="line"/>
      <point x="163" y="218" type="line"/>
      <point x="163" y="0" type="line"/>
      <point x="322" y="0" type="line"/>
      <point x="322" y="218" type="line"/>
      <point x="452" y="218" type="line"/>
      <point x="452" y="354" type="line"/>
      <point x="322" y="354" type="line"/>
      <point x="322" y="426" type="line"/>
      <point x="452" y="426" type="line"/>
      <point x="452" y="562" type="line"/>
      <point x="322" y="562" type="line"/>
    </contour>
  </outline>
</glyph>
<glyph name="uni0247" format="2">
  <advance width="610"/>
  <unicode hex="0247"/>
  <anchor x="333" y="-207" name="bottom"/>
  <anchor x="297" y="760" name="top"/>
  <anchor x="576" y="553" name="topright"/>
  <outline>
    <contour>
      <point x="536" y="760" type="line"/>
      <point x="412" y="760" type="line"/>
      <point x="78" y="-207" type="line"/>
      <point x="202" y="-207" type="line"/>
    </contour>
    <component base="e"/>
  </outline>
</glyph>
<glyph name="uni0262" format="2">
  <advance width="579"/>
  <unicode hex="0262"/>
  <anchor x="319" y="-11" name="bottom"/>
  <anchor x="289" y="553" name="top"/>
  <anchor x="591" y="559" name="topright"/>
  <outline>
    <contour>
      <point x="326" y="562" type="curve"/>
      <point x="124" y="562"/>
      <point x="36" y="434"/>
      <point x="36" y="277" type="curve"/>
      <point x="36" y="102"/>
      <point x="128" y="-11"/>
      <point x="334" y="-11" type="curve" smooth="yes"/>
      <point x="425" y="-11"/>
      <point x="496" y="16"/>
      <point x="533" y="37" type="curve"/>
      <point x="533" y="326" type="line"/>
      <point x="274" y="326" type="line"/>
      <point x="274" y="201" type="line"/>
      <point x="335" y="201" type="line"/>
      <point x="335" y="148" type="line"/>
      <point x="320" y="144"/>
      <point x="321" y="143"/>
      <point x="313" y="143" type="curve"/>
      <point x="261" y="143"/>
      <point x="245" y="196"/>
      <point x="245" y="277" type="curve"/>
      <point x="245" y="376"/>
      <point x="294" y="408"/>
      <point x="339" y="408" type="curve"/>
      <point x="390" y="408"/>
      <point x="425" y="392"/>
      <point x="462" y="369" type="curve"/>
      <point x="523" y="515" type="line"/>
      <point x="447" y="553"/>
      <point x="391" y="562"/>
    </contour>
  </outline>
</glyph>
<glyph name="uni026A" format="2">
  <advance width="448"/>
  <unicode hex="026A"/>
  <anchor x="225" y="0" name="bottom"/>
  <anchor x="225" y="553" name="top"/>
  <outline>
    <contour>
      <point x="415" y="553" type="line"/>
      <point x="33" y="553" type="line"/>
      <point x="33" y="463" type="line"/>
      <point x="123" y="406" type="line"/>
      <point x="123" y="147" type="line"/>
      <point x="33" y="90" type="line"/>
      <point x="33" y="0" type="line"/>
      <point x="415" y="0" type="line"/>
      <point x="415" y="90" type="line"/>
      <point x="327" y="147" type="line"/>
      <point x="327" y="406" type="line"/>
      <point x="415" y="463" type="line"/>
    </contour>
  </outline>
</glyph>
<glyph name="uni0274" format="2">
  <advance width="717"/>
  <unicode hex="0274"/>
  <anchor x="359" y="0" name="bottom"/>
  <anchor x="359" y="553" name="top"/>
  <anchor x="694" y="553" name="topright"/>
  <outline>
    <contour>
      <point x="62" y="0" type="line"/>
      <point x="255" y="0" type="line"/>
      <point x="255" y="177" type="line" smooth="yes"/>
      <point x="255" y="229"/>
      <point x="258" y="291"/>
      <point x="253" y="342" type="curve"/>
      <point x="408" y="0" type="line"/>
      <point x="655" y="0" type="line"/>
      <point x="655" y="553" type="line"/>
      <point x="464" y="553" type="line"/>
      <point x="464" y="360" type="line" smooth="yes"/>
      <point x="464" y="310"/>
      <point x="463" y="256"/>
      <point x="469" y="206" type="curve"/>
      <point x="307" y="553" type="line"/>
      <point x="62" y="553" type="line"/>
    </contour>
  </outline>
</glyph>
<glyph name="uni0280" format="2">
  <advance width="629"/>
  <unicode hex="0280"/>
  <anchor x="314" y="0" name="bottom"/>
  <anchor x="314" y="553" name="top"/>
  <outline>
    <contour>
      <point x="79" y="0" type="line"/>
      <point x="285" y="0" type="line"/>
      <point x="285" y="194" type="line"/>
      <point x="300" y="194" type="line"/>
      <point x="407" y="0" type="line"/>
      <point x="630" y="0" type="line"/>
      <point x="476" y="224" type="line"/>
      <point x="538" y="251"/>
      <point x="577" y="297"/>
      <point x="577" y="383" type="curve" smooth="yes"/>
      <point x="577" y="500"/>
      <point x="483" y="550"/>
      <point x="350" y="550" type="curve"/>
      <point x="79" y="550" type="line"/>
    </contour>
    <contour>
      <point x="285" y="319" type="line"/>
      <point x="285" y="419" type="line"/>
      <point x="331" y="419" type="line"/>
      <point x="365" y="419"/>
      <point x="377" y="397"/>
      <point x="377" y="374" type="curve"/>
      <point x="377" y="341"/>
      <point x="359" y="319"/>
      <point x="322" y="319" type="curve"/>
    </contour>
  </outline>
</glyph>
<glyph name="uni028F" format="2">
  <advance width="610"/>
  <unicode hex="028F"/>
  <anchor x="305" y="0" name="bottom"/>
  <anchor x="305" y="553" name="top"/>
  <outline>
    <contour>
      <point x="617" y="553" type="line"/>
      <point x="383" y="553" type="line"/>
      <point x="307" y="375" type="line"/>
      <point x="227" y="553" type="line"/>
      <point x="-7" y="553" type="line"/>
      <point x="202" y="198" type="line"/>
      <point x="202" y="0" type="line"/>
      <point x="408" y="0" type="line"/>
      <point x="408" y="198" type="line"/>
    </contour>
  </outline>
</glyph>
<glyph name="uni029F" format="2">
  <advance width="474"/>
  <unicode hex="029F"/>
  <anchor x="238" y="0" name="bottom"/>
  <anchor x="238" y="553" name="top"/>
  <outline>
    <contour>
      <point x="56" y="0" type="line"/>
      <point x="451" y="0" type="line"/>
      <point x="451" y="144" type="line"/>
      <point x="258" y="144" type="line"/>
      <point x="258" y="553" type="line"/>
      <point x="56" y="553" type="line"/>
    </contour>
  </outline>
</glyph>
<glyph name="downtackbelowcomb" format="2">
  <unicode hex="031E"/>
  <anchor x="0" y="2" name="_bottom"/>
  <anchor x="2" y="-208" name="bottom"/>
  <outline>
    <contour>
      <point x="-31" y="-208" type="line"/>
      <point x="31" y="-208" type="line"/>
      <point x="31" y="-108" type="line"/>
      <point x="98" y="-108" type="line"/>
      <point x="98" y="-48" type="line"/>
      <point x="-99" y="-48" type="line"/>
      <point x="-99" y="-108" type="line"/>
      <point x="-31" y="-108" type="line"/>
    </contour>
  </outline>
</glyph>
<glyph name="arrowupbelowcomb" format="2">
  <unicode hex="034E"/>
  <anchor x="0" y="25" name="_bottom"/>
  <anchor x="2" y="-240" name="bottom"/>
  <outline>
    <contour>
      <point x="-31" y="-240" type="line"/>
      <point x="32" y="-240" type="line"/>
      <point x="32" y="-120" type="line"/>
      <point x="87" y="-120" type="line"/>
      <point x="0" y="-25" type="line"/>
      <point x="-86" y="-120" type="line"/>
      <point x="-31" y="-120" type="line"/>
    </contour>
  </outline>
</glyph>
<glyph name="uni0374" format="2">
  <advance width="276"/>
  <unicode hex="0374"/>
  <outline>
    <contour>
      <point x="19" y="573" type="curve"/>
      <point x="19" y="554" type="line"/>
      <point x="139" y="554" type="line"/>
      <point x="183" y="596"/>
      <point x="231" y="654"/>
      <point x="257" y="698" type="curve"/>
      <point x="257" y="714" type="line"/>
      <point x="80" y="714" type="line"/>
      <point x="68" y="671"/>
      <point x="41" y="612"/>
    </contour>
  </outline>
</glyph>
<glyph name="uni0375" format="2">
  <advance width="276"/>
  <unicode hex="0375"/>
  <outline>
    <contour>
      <point x="257" y="-79" type="curve"/>
      <point x="257" y="-60" type="line"/>
      <point x="137" y="-60" type="line"/>
      <point x="93" y="-102"/>
      <point x="45" y="-160"/>
      <point x="19" y="-204" type="curve"/>
      <point x="19" y="-220" type="line"/>
      <point x="196" y="-220" type="line"/>
      <point x="209" y="-177"/>
      <point x="236" y="-118"/>
    </contour>
  </outline>
</glyph>
<glyph name="tonos" format="2">
  <advance width="490"/>
  <unicode hex="0384"/>
  <anchor x="235" y="553" name="_top"/>
  <outline>
    <contour>
      <point x="167" y="606" type="line"/>
      <point x="283" y="606" type="line"/>
      <point x="321" y="671"/>
      <point x="347" y="725"/>
      <point x="374" y="782" type="curve"/>
      <point x="374" y="795" type="line"/>
      <point x="200" y="795" type="line"/>
      <point x="194" y="746"/>
      <point x="178" y="667"/>
      <point x="167" y="622" type="curve"/>
    </contour>
  </outline>
</glyph>
<glyph name="dieresistonos" format="2">
  <advance width="524"/>
  <unicode hex="0385"/>
  <anchor x="263" y="553" name="_top"/>
  <outline>
    <contour>
      <point x="369" y="828" type="curve"/>
      <point x="369" y="838" type="line"/>
      <point x="217" y="838" type="line"/>
      <point x="218" y="797"/>
      <point x="209" y="730"/>
      <point x="204" y="692" type="curve"/>
      <point x="204" y="678" type="line"/>
      <point x="292" y="678" type="line"/>
      <point x="326" y="733"/>
      <point x="352" y="783"/>
    </contour>
    <contour>
      <point x="111" y="767" type="curve" smooth="yes"/>
      <point x="62" y="767"/>
      <point x="34" y="743"/>
      <point x="34" y="690" type="curve" smooth="yes"/>
      <point x="34" y="638"/>
      <point x="62" y="614"/>
      <point x="111" y="614" type="curve" smooth="yes"/>
      <point x="157" y="614"/>
      <point x="189" y="638"/>
      <point x="189" y="690" type="curve" smooth="yes"/>
      <point x="189" y="743"/>
      <point x="157" y="767"/>
    </contour>
    <contour>
      <point x="413" y="767" type="curve" smooth="yes"/>
      <point x="363" y="767"/>
      <point x="333" y="743"/>
      <point x="333" y="690" type="curve" smooth="yes"/>
      <point x="333" y="638"/>
      <point x="363" y="614"/>
      <point x="413" y="614" type="curve" smooth="yes"/>
      <point x="461" y="614"/>
      <point x="490" y="638"/>
      <point x="490" y="690" type="curve" smooth="yes"/>
      <point x="490" y="743"/>
      <point x="461" y="767"/>
    </contour>
  </outline>
</glyph>
<glyph name="Gamma" format="2">
  <advance width="553"/>
  <unicode hex="0393"/>
  <anchor x="276" y="0" name="bottom"/>
  <anchor x="310" y="714" name="top"/>
  <outline>
    <contour>
      <point x="527" y="714" type="line"/>
      <point x="66" y="714" type="line"/>
      <point x="66" y="0" type="line"/>
      <point x="271" y="0" type="line"/>
      <point x="271" y="558" type="line"/>
      <point x="527" y="558" type="line"/>
    </contour>
  </outline>
</glyph>
<glyph name="Delta" format="2">
  <advance width="690"/>
  <unicode hex="0394"/>
  <anchor x="353" y="0" name="bottom"/>
  <anchor x="353" y="714" name="top"/>
  <outline>
    <contour>
      <point x="468" y="719" type="line"/>
      <point x="224" y="719" type="line"/>
      <point x="9" y="109" type="line"/>
      <point x="9" y="0" type="line"/>
      <point x="681" y="0" type="line"/>
      <point x="681" y="108" type="line"/>
    </contour>
    <contour>
      <point x="454" y="158" type="line"/>
      <point x="237" y="158" type="line"/>
      <point x="335" y="497" type="line" smooth="yes"/>
      <point x="340" y="514"/>
      <point x="339" y="541"/>
      <point x="345" y="567" type="curve"/>
      <point x="350" y="541"/>
      <point x="350" y="515"/>
      <point x="355" y="497" type="curve" smooth="yes"/>
    </contour>
  </outline>
</glyph>
<glyph name="Lambda" format="2">
  <advance width="676"/>
  <unicode hex="039B"/>
  <anchor x="338" y="0" name="bottom"/>
  <anchor x="338" y="714" name="top"/>
  <outline>
    <contour>
      <point x="462" y="714" type="line"/>
      <point x="216" y="714" type="line"/>
      <point x="0" y="0" type="line"/>
      <point x="236" y="0" type="line"/>
      <point x="313" y="364" type="line" smooth="yes"/>
      <point x="322" y="406"/>
      <point x="336" y="490"/>
      <point x="338" y="530" type="curve"/>
      <point x="339" y="490"/>
      <point x="356" y="403"/>
      <point x="365" y="362" type="curve" smooth="yes"/>
      <point x="438" y="0" type="line"/>
      <point x="676" y="0" type="line"/>
    </contour>
  </outline>
</glyph>
<glyph name="Xi" format="2">
  <advance width="541"/>
  <unicode hex="039E"/>
  <anchor x="270" y="0" name="bottom"/>
  <anchor x="270" y="714" name="top"/>
  <outline>
    <contour>
      <point x="36" y="0" type="line"/>
      <point x="505" y="0" type="line"/>
      <point x="505" y="157" type="line"/>
      <point x="36" y="157" type="line"/>
    </contour>
    <contour>
      <point x="92" y="292" type="line"/>
      <point x="448" y="292" type="line"/>
      <point x="448" y="447" type="line"/>
      <point x="92" y="447" type="line"/>
    </contour>
    <contour>
      <point x="55" y="559" type="line"/>
      <point x="486" y="559" type="line"/>
      <point x="486" y="714" type="line"/>
      <point x="55" y="714" type="line"/>
    </contour>
  </outline>
</glyph>
<glyph name="Pi" format="2">
  <advance width="692"/>
  <unicode hex="03A0"/>
  <anchor x="347" y="0" name="bottom"/>
  <anchor x="347" y="714" name="top"/>
  <outline>
    <contour>
      <point x="66" y="0" type="line"/>
      <point x="271" y="0" type="line"/>
      <point x="271" y="556" type="line"/>
      <point x="421" y="556" type="line"/>
      <point x="421" y="0" type="line"/>
      <point x="626" y="0" type="line"/>
      <point x="626" y="714" type="line"/>
      <point x="66" y="714" type="line"/>
    </contour>
  </outline>
</glyph>
<glyph name="Sigma" format="2">
  <advance width="570"/>
  <unicode hex="03A3"/>
  <anchor x="285" y="0" name="bottom"/>
  <anchor x="285" y="714" name="top"/>
  <outline>
    <contour>
      <point x="33" y="0" type="line"/>
      <point x="534" y="0" type="line"/>
      <point x="534" y="157" type="line"/>
      <point x="367" y="157" type="line" smooth="yes"/>
      <point x="320" y="157"/>
      <point x="298" y="155"/>
      <point x="259" y="151" type="curve"/>
      <point x="454" y="376" type="line"/>
      <point x="269" y="564" type="line"/>
      <point x="308" y="559"/>
      <point x="341" y="559"/>
      <point x="380" y="559" type="curve" smooth="yes"/>
      <point x="507" y="559" type="line"/>
      <point x="507" y="714" type="line"/>
      <point x="39" y="714" type="line"/>
      <point x="39" y="569" type="line"/>
      <point x="230" y="375" type="line"/>
      <point x="33" y="150" type="line"/>
    </contour>
  </outline>
</glyph>
<glyph name="Psi" format="2">
  <advance width="903"/>
  <unicode hex="03A8"/>
  <anchor x="452" y="0" name="bottom"/>
  <anchor x="452" y="714" name="top"/>
  <outline>
    <contour>
      <point x="850" y="714" type="line"/>
      <point x="646" y="714" type="line"/>
      <point x="646" y="468" type="line" smooth="yes"/>
      <point x="646" y="384"/>
      <point x="611" y="353"/>
      <point x="552" y="353" type="curve"/>
      <point x="552" y="714" type="line"/>
      <point x="351" y="714" type="line"/>
      <point x="351" y="353" type="line"/>
      <point x="283" y="353"/>
      <point x="257" y="380"/>
      <point x="257" y="470" type="curve" smooth="yes"/>
      <point x="257" y="714" type="line"/>
      <point x="53" y="714" type="line"/>
      <point x="53" y="468" type="line" smooth="yes"/>
      <point x="53" y="268"/>
      <point x="138" y="200"/>
      <point x="351" y="194" type="curve"/>
      <point x="351" y="0" type="line"/>
      <point x="552" y="0" type="line"/>
      <point x="552" y="194" type="line"/>
      <point x="769" y="200"/>
      <point x="850" y="280"/>
      <point x="850" y="481" type="curve" smooth="yes"/>
    </contour>
  </outline>
</glyph>
<glyph name="Omega" format="2">
  <advance width="754"/>
  <unicode hex="03A9"/>
  <anchor x="377" y="0" name="bottom"/>
  <anchor x="377" y="725" name="top"/>
  <anchor x="19" y="714" name="topleft"/>
  <outline>
    <contour>
      <point x="377" y="567" type="curve" smooth="yes"/>
      <point x="437" y="567"/>
      <point x="500" y="511"/>
      <point x="500" y="391" type="curve" smooth="yes"/>
      <point x="500" y="289"/>
      <point x="479" y="229"/>
      <point x="412" y="178" type="curve"/>
      <point x="412" y="0" type="line"/>
      <point x="733" y="0" type="line"/>
      <point x="733" y="158" type="line"/>
      <point x="556" y="158" type="line"/>
      <point x="668" y="215"/>
      <point x="708" y="316"/>
      <point x="708" y="423" type="curve" smooth="yes"/>
      <point x="708" y="611"/>
      <point x="570" y="725"/>
      <point x="377" y="725" type="curve" smooth="yes"/>
      <point x="180" y="725"/>
      <point x="45" y="612"/>
      <point x="45" y="422" type="curve" smooth="yes"/>
      <point x="45" y="318"/>
      <point x="88" y="209"/>
      <point x="193" y="158" type="curve"/>
      <point x="21" y="158" type="line"/>
      <point x="21" y="0" type="line"/>
      <point x="338" y="0" type="line"/>
      <point x="338" y="178" type="line"/>
      <point x="277" y="227"/>
      <point x="254" y="286"/>
      <point x="254" y="389" type="curve" smooth="yes"/>
      <point x="254" y="511"/>
      <point x="317" y="567"/>
    </contour>
  </outline>
</glyph>
<glyph name="alpha" format="2">
  <advance width="645"/>
  <unicode hex="03B1"/>
  <anchor x="327" y="0" name="bottom"/>
  <anchor x="329" y="553" name="top"/>
  <outline>
    <contour>
      <point x="305" y="138" type="curve" smooth="yes"/>
      <point x="264" y="138"/>
      <point x="243" y="185"/>
      <point x="243" y="273" type="curve" smooth="yes"/>
      <point x="243" y="363"/>
      <point x="264" y="413"/>
      <point x="303" y="413" type="curve" smooth="yes"/>
      <point x="354" y="413"/>
      <point x="371" y="363"/>
      <point x="371" y="275" type="curve" smooth="yes"/>
      <point x="371" y="270" type="line" smooth="yes"/>
      <point x="371" y="180"/>
      <point x="354" y="138"/>
    </contour>
    <contour>
      <point x="233" y="-10" type="curve" smooth="yes"/>
      <point x="302" y="-10"/>
      <point x="350" y="27"/>
      <point x="376" y="72" type="curve"/>
      <point x="389" y="72" type="line"/>
      <point x="421" y="10"/>
      <point x="463" y="-10"/>
      <point x="544" y="-10" type="curve" smooth="yes"/>
      <point x="564" y="-10"/>
      <point x="611" y="-3"/>
      <point x="620" y="3" type="curve"/>
      <point x="620" y="145" type="line"/>
      <point x="615" y="143"/>
      <point x="601" y="140"/>
      <point x="593" y="140" type="curve" smooth="yes"/>
      <point x="573" y="140"/>
      <point x="556" y="152"/>
      <point x="556" y="199" type="curve" smooth="yes"/>
      <point x="556" y="324" type="line" smooth="yes"/>
      <point x="556" y="426"/>
      <point x="583" y="511"/>
      <point x="597" y="553" type="curve"/>
      <point x="427" y="553" type="line"/>
      <point x="411" y="533"/>
      <point x="400" y="502"/>
      <point x="395" y="479" type="curve"/>
      <point x="387" y="479" type="line"/>
      <point x="359" y="535"/>
      <point x="317" y="561"/>
      <point x="247" y="561" type="curve" smooth="yes"/>
      <point x="123" y="561"/>
      <point x="38" y="464"/>
      <point x="38" y="274" type="curve" smooth="yes"/>
      <point x="38" y="89"/>
      <point x="116" y="-10"/>
    </contour>
  </outline>
</glyph>
<glyph name="beta" format="2">
  <advance width="657"/>
  <unicode hex="03B2"/>
  <anchor x="414" y="0" name="bottom"/>
  <anchor x="325" y="765" name="top"/>
  <anchor x="574" y="765" name="topright"/>
  <outline>
    <contour>
      <point x="325" y="765" type="curve" smooth="yes"/>
      <point x="174" y="765"/>
      <point x="56" y="696"/>
      <point x="56" y="535" type="curve" smooth="yes"/>
      <point x="56" y="-240" type="line"/>
      <point x="258" y="-240" type="line"/>
      <point x="258" y="19" type="line"/>
      <point x="294" y="0"/>
      <point x="351" y="-10"/>
      <point x="398" y="-10" type="curve" smooth="yes"/>
      <point x="526" y="-10"/>
      <point x="617" y="75"/>
      <point x="617" y="217" type="curve" smooth="yes"/>
      <point x="617" y="338"/>
      <point x="546" y="388"/>
      <point x="448" y="402" type="curve"/>
      <point x="448" y="406" type="line"/>
      <point x="527" y="420"/>
      <point x="573" y="476"/>
      <point x="573" y="572" type="curve" smooth="yes"/>
      <point x="573" y="701"/>
      <point x="468" y="765"/>
    </contour>
    <contour>
      <point x="318" y="623" type="curve" smooth="yes"/>
      <point x="351" y="623"/>
      <point x="373" y="594"/>
      <point x="373" y="544" type="curve" smooth="yes"/>
      <point x="373" y="497"/>
      <point x="358" y="461"/>
      <point x="325" y="461" type="curve" smooth="yes"/>
      <point x="311" y="461" type="line"/>
      <point x="311" y="319" type="line"/>
      <point x="334" y="319" type="line" smooth="yes"/>
      <point x="365" y="319"/>
      <point x="414" y="300"/>
      <point x="414" y="235" type="curve" smooth="yes"/>
      <point x="414" y="172"/>
      <point x="378" y="140"/>
      <point x="330" y="140" type="curve" smooth="yes"/>
      <point x="303" y="140"/>
      <point x="267" y="153"/>
      <point x="258" y="166" type="curve"/>
      <point x="258" y="518" type="line" smooth="yes"/>
      <point x="258" y="602"/>
      <point x="285" y="623"/>
    </contour>
  </outline>
</glyph>
<glyph name="gamma" format="2">
  <advance width="585"/>
  <unicode hex="03B3"/>
  <anchor x="293" y="-240" name="bottom"/>
  <anchor x="293" y="553" name="top"/>
  <anchor x="576" y="553" name="topright"/>
  <outline>
    <contour>
      <point x="397" y="7" type="curve" smooth="yes"/>
      <point x="590" y="553" type="line"/>
      <point x="380" y="553" type="line"/>
      <point x="329" y="365" type="line" smooth="yes"/>
      <point x="307" y="285"/>
      <point x="296" y="224"/>
      <point x="291" y="194" type="curve"/>
      <point x="287" y="194" type="line"/>
      <point x="281" y="249"/>
      <point x="264" y="318"/>
      <point x="251" y="374" type="curve" smooth="yes"/>
      <point x="208" y="553" type="line"/>
      <point x="-2" y="553" type="line"/>
      <point x="183" y="6" type="line"/>
      <point x="160" y="-76"/>
      <point x="140" y="-185"/>
      <point x="140" y="-240" type="curve"/>
      <point x="352" y="-240" type="line"/>
      <point x="352" y="-173"/>
      <point x="368" y="-74"/>
    </contour>
  </outline>
</glyph>
<glyph name="delta" format="2">
  <advance width="607"/>
  <unicode hex="03B4"/>
  <anchor x="303" y="0" name="bottom"/>
  <anchor x="303" y="769" name="top"/>
  <outline>
    <contour>
      <point x="333" y="769" type="curve" smooth="yes"/>
      <point x="166" y="769"/>
      <point x="101" y="706"/>
      <point x="101" y="611" type="curve" smooth="yes"/>
      <point x="101" y="543"/>
      <point x="123" y="485"/>
      <point x="195" y="439" type="curve"/>
      <point x="67" y="398"/>
      <point x="38" y="318"/>
      <point x="38" y="214" type="curve" smooth="yes"/>
      <point x="38" y="71"/>
      <point x="149" y="-10"/>
      <point x="300" y="-10" type="curve" smooth="yes"/>
      <point x="462" y="-10"/>
      <point x="569" y="71"/>
      <point x="569" y="234" type="curve" smooth="yes"/>
      <point x="569" y="349"/>
      <point x="524" y="430"/>
      <point x="408" y="498" type="curve" smooth="yes"/>
      <point x="310" y="555"/>
      <point x="292" y="570"/>
      <point x="292" y="595" type="curve" smooth="yes"/>
      <point x="292" y="616"/>
      <point x="307" y="627"/>
      <point x="340" y="627" type="curve" smooth="yes"/>
      <point x="375" y="627"/>
      <point x="435" y="608"/>
      <point x="501" y="575" type="curve"/>
      <point x="574" y="713" type="line"/>
      <point x="500" y="750"/>
      <point x="415" y="769"/>
    </contour>
    <contour>
      <point x="299" y="366" type="curve"/>
      <point x="334" y="334"/>
      <point x="364" y="291"/>
      <point x="364" y="235" type="curve" smooth="yes"/>
      <point x="364" y="170"/>
      <point x="340" y="132"/>
      <point x="303" y="132" type="curve" smooth="yes"/>
      <point x="263" y="132"/>
      <point x="242" y="172"/>
      <point x="242" y="225" type="curve" smooth="yes"/>
      <point x="242" y="309"/>
      <point x="276" y="355"/>
    </contour>
  </outline>
</glyph>
<glyph name="zeta" format="2">
  <advance width="486"/>
  <unicode hex="03B6"/>
  <anchor x="243" y="-178" name="bottom"/>
  <anchor x="243" y="760" name="top"/>
  <outline>
    <contour>
      <point x="500" y="-9" type="curve" smooth="yes"/>
      <point x="500" y="60"/>
      <point x="472" y="111"/>
      <point x="371" y="139" type="curve" smooth="yes"/>
      <point x="267" y="168"/>
      <point x="242" y="191"/>
      <point x="242" y="249" type="curve" smooth="yes"/>
      <point x="242" y="365"/>
      <point x="312" y="473"/>
      <point x="486" y="647" type="curve"/>
      <point x="486" y="760" type="line"/>
      <point x="63" y="760" type="line"/>
      <point x="63" y="618" type="line"/>
      <point x="204" y="618" type="line" smooth="yes"/>
      <point x="224" y="618"/>
      <point x="246" y="622"/>
      <point x="266" y="629" type="curve"/>
      <point x="81" y="494"/>
      <point x="38" y="355"/>
      <point x="38" y="223" type="curve" smooth="yes"/>
      <point x="38" y="105"/>
      <point x="87" y="38"/>
      <point x="208" y="5" type="curve" smooth="yes"/>
      <point x="265" y="-10"/>
      <point x="306" y="-23"/>
      <point x="306" y="-50" type="curve" smooth="yes"/>
      <point x="306" y="-70"/>
      <point x="286" y="-126"/>
      <point x="236" y="-178" type="curve"/>
      <point x="436" y="-178" type="line"/>
      <point x="477" y="-125"/>
      <point x="500" y="-70"/>
    </contour>
  </outline>
</glyph>
<glyph name="eta" format="2">
  <advance width="637"/>
  <unicode hex="03B7"/>
  <anchor x="319" y="-240" name="bottom"/>
  <anchor x="326" y="553" name="top"/>
  <outline>
    <contour>
      <point x="400" y="563" type="curve" smooth="yes"/>
      <point x="336" y="563"/>
      <point x="277" y="541"/>
      <point x="244" y="485" type="curve"/>
      <point x="232" y="485" type="line"/>
      <point x="207" y="553" type="line"/>
      <point x="56" y="553" type="line"/>
      <point x="56" y="0" type="line"/>
      <point x="258" y="0" type="line"/>
      <point x="258" y="242" type="line" smooth="yes"/>
      <point x="258" y="352"/>
      <point x="271" y="413"/>
      <point x="329" y="413" type="curve" smooth="yes"/>
      <point x="366" y="413"/>
      <point x="381" y="375"/>
      <point x="381" y="315" type="curve" smooth="yes"/>
      <point x="381" y="-240" type="line"/>
      <point x="583" y="-240" type="line"/>
      <point x="583" y="360" type="line" smooth="yes"/>
      <point x="583" y="502"/>
      <point x="498" y="563"/>
    </contour>
  </outline>
</glyph>
<glyph name="theta" format="2">
  <advance width="616"/>
  <unicode hex="03B8"/>
  <anchor x="308" y="0" name="bottom"/>
  <anchor x="308" y="771" name="top"/>
  <anchor x="541" y="771" name="topright"/>
  <outline>
    <contour>
      <point x="578" y="381" type="curve" smooth="yes"/>
      <point x="578" y="628"/>
      <point x="488" y="771"/>
      <point x="307" y="771" type="curve" smooth="yes"/>
      <point x="111" y="771"/>
      <point x="38" y="626"/>
      <point x="38" y="381" type="curve" smooth="yes"/>
      <point x="38" y="136"/>
      <point x="127" y="-10"/>
      <point x="307" y="-10" type="curve" smooth="yes"/>
      <point x="503" y="-10"/>
      <point x="578" y="136"/>
    </contour>
    <contour>
      <point x="307" y="124" type="curve" smooth="yes"/>
      <point x="264" y="124"/>
      <point x="243" y="190"/>
      <point x="243" y="313" type="curve"/>
      <point x="374" y="313" type="line"/>
      <point x="373" y="188"/>
      <point x="351" y="124"/>
    </contour>
    <contour>
      <point x="310" y="637" type="curve" smooth="yes"/>
      <point x="351" y="637"/>
      <point x="373" y="575"/>
      <point x="376" y="447" type="curve"/>
      <point x="245" y="447" type="line"/>
      <point x="247" y="575"/>
      <point x="267" y="637"/>
    </contour>
  </outline>
</glyph>
<glyph name="lambda" format="2">
  <advance width="652"/>
  <unicode hex="03BB"/>
  <anchor x="326" y="0" name="bottom"/>
  <anchor x="326" y="766" name="top"/>
  <outline>
    <contour>
      <point x="-2" y="0" type="line"/>
      <point x="208" y="0" type="line"/>
      <point x="287" y="226" type="line" smooth="yes"/>
      <point x="295" y="248"/>
      <point x="301" y="287"/>
      <point x="303" y="319" type="curve"/>
      <point x="308" y="319" type="line"/>
      <point x="310" y="297"/>
      <point x="312" y="264"/>
      <point x="324" y="224" type="curve" smooth="yes"/>
      <point x="352" y="132" type="line" smooth="yes"/>
      <point x="375" y="58"/>
      <point x="422" y="-10"/>
      <point x="531" y="-10" type="curve" smooth="yes"/>
      <point x="556" y="-10"/>
      <point x="625" y="-2"/>
      <point x="641" y="7" type="curve"/>
      <point x="641" y="145" type="line"/>
      <point x="625" y="141"/>
      <point x="614" y="140"/>
      <point x="605" y="140" type="curve" smooth="yes"/>
      <point x="562" y="140"/>
      <point x="543" y="149"/>
      <point x="510" y="250" type="curve" smooth="yes"/>
      <point x="401" y="586" type="line" smooth="yes"/>
      <point x="359" y="714"/>
      <point x="292" y="766"/>
      <point x="160" y="766" type="curve" smooth="yes"/>
      <point x="137" y="766"/>
      <point x="84" y="762"/>
      <point x="67" y="758" type="curve"/>
      <point x="67" y="608" type="line"/>
      <point x="91" y="613"/>
      <point x="119" y="616"/>
      <point x="138" y="616" type="curve" smooth="yes"/>
      <point x="167" y="616"/>
      <point x="211" y="606"/>
      <point x="222" y="536" type="curve" smooth="yes"/>
      <point x="225" y="516" type="line"/>
    </contour>
  </outline>
</glyph>
<glyph name="nu" format="2">
  <advance width="596"/>
  <unicode hex="03BD"/>
  <anchor x="297" y="0" name="bottom"/>
  <anchor x="297" y="553" name="top"/>
  <outline>
    <contour>
      <point x="-2" y="553" type="line"/>
      <point x="197" y="0" type="line"/>
      <point x="361" y="0" type="line"/>
      <point x="508" y="177"/>
      <point x="565" y="344"/>
      <point x="565" y="553" type="curve"/>
      <point x="364" y="553" type="line"/>
      <point x="364" y="359"/>
      <point x="337" y="260"/>
      <point x="308" y="172" type="curve"/>
      <point x="303" y="172" type="line"/>
      <point x="301" y="195"/>
      <point x="300" y="223"/>
      <point x="296" y="241" type="curve" smooth="yes"/>
      <point x="206" y="553" type="line"/>
    </contour>
  </outline>
</glyph>
<glyph name="xi" format="2">
  <advance width="494"/>
  <unicode hex="03BE"/>
  <anchor x="247" y="-178" name="bottom"/>
  <anchor x="268" y="760" name="top"/>
  <outline>
    <contour>
      <point x="38" y="208" type="curve" smooth="yes"/>
      <point x="38" y="105"/>
      <point x="82" y="38"/>
      <point x="209" y="8" type="curve" smooth="yes"/>
      <point x="282" y="-9"/>
      <point x="299" y="-23"/>
      <point x="299" y="-50" type="curve" smooth="yes"/>
      <point x="299" y="-70"/>
      <point x="279" y="-126"/>
      <point x="229" y="-178" type="curve"/>
      <point x="436" y="-178" type="line"/>
      <point x="477" y="-125"/>
      <point x="500" y="-70"/>
      <point x="500" y="-9" type="curve" smooth="yes"/>
      <point x="500" y="60"/>
      <point x="464" y="116"/>
      <point x="361" y="140" type="curve" smooth="yes"/>
      <point x="258" y="164"/>
      <point x="242" y="187"/>
      <point x="242" y="231" type="curve" smooth="yes"/>
      <point x="242" y="279"/>
      <point x="251" y="323"/>
      <point x="367" y="323" type="curve" smooth="yes"/>
      <point x="439" y="323" type="line"/>
      <point x="439" y="463" type="line"/>
      <point x="365" y="463" type="line" smooth="yes"/>
      <point x="292" y="463"/>
      <point x="268" y="487"/>
      <point x="268" y="529" type="curve" smooth="yes"/>
      <point x="268" y="599"/>
      <point x="322" y="618"/>
      <point x="380" y="618" type="curve" smooth="yes"/>
      <point x="478" y="618" type="line"/>
      <point x="478" y="760" type="line"/>
      <point x="47" y="760" type="line"/>
      <point x="47" y="618" type="line"/>
      <point x="61" y="618" type="line" smooth="yes"/>
      <point x="93" y="618"/>
      <point x="121" y="621"/>
      <point x="148" y="624" type="curve"/>
      <point x="96" y="604"/>
      <point x="67" y="561"/>
      <point x="67" y="515" type="curve" smooth="yes"/>
      <point x="67" y="455"/>
      <point x="99" y="414"/>
      <point x="166" y="399" type="curve"/>
      <point x="166" y="395" type="line"/>
      <point x="76" y="358"/>
      <point x="38" y="300"/>
    </contour>
  </outline>
</glyph>
<glyph name="pi" format="2">
  <advance width="777"/>
  <unicode hex="03C0"/>
  <anchor x="389" y="0" name="bottom"/>
  <anchor x="389" y="553" name="top"/>
  <outline>
    <contour>
      <point x="663" y="140" type="curve" smooth="yes"/>
      <point x="640" y="140"/>
      <point x="620" y="155"/>
      <point x="620" y="193" type="curve" smooth="yes"/>
      <point x="620" y="411" type="line"/>
      <point x="738" y="411" type="line"/>
      <point x="738" y="553" type="line"/>
      <point x="108" y="553" type="line"/>
      <point x="10" y="492" type="line"/>
      <point x="10" y="411" type="line"/>
      <point x="123" y="411" type="line"/>
      <point x="123" y="0" type="line"/>
      <point x="325" y="0" type="line"/>
      <point x="325" y="411" type="line"/>
      <point x="418" y="411" type="line"/>
      <point x="418" y="172" type="line" smooth="yes"/>
      <point x="418" y="54"/>
      <point x="458" y="-10"/>
      <point x="581" y="-10" type="curve" smooth="yes"/>
      <point x="646" y="-10"/>
      <point x="708" y="7"/>
      <point x="741" y="26" type="curve"/>
      <point x="741" y="157" type="line"/>
      <point x="719" y="147"/>
      <point x="683" y="140"/>
    </contour>
  </outline>
</glyph>
<glyph name="rho" format="2">
  <advance width="628"/>
  <unicode hex="03C1"/>
  <anchor x="314" y="-240" name="bottom"/>
  <anchor x="314" y="553" name="top"/>
  <outline>
    <contour>
      <point x="590" y="276" type="curve" smooth="yes"/>
      <point x="590" y="456"/>
      <point x="478" y="563"/>
      <point x="329" y="563" type="curve" smooth="yes"/>
      <point x="155" y="563"/>
      <point x="63" y="451"/>
      <point x="63" y="273" type="curve" smooth="yes"/>
      <point x="63" y="-240" type="line"/>
      <point x="264" y="-240" type="line"/>
      <point x="264" y="-107" type="line" smooth="yes"/>
      <point x="264" y="-65"/>
      <point x="257" y="-8"/>
      <point x="252" y="23" type="curve"/>
      <point x="267" y="23" type="line"/>
      <point x="296" y="3"/>
      <point x="345" y="-10"/>
      <point x="390" y="-10" type="curve" smooth="yes"/>
      <point x="513" y="-10"/>
      <point x="590" y="95"/>
    </contour>
    <contour>
      <point x="327" y="421" type="curve" smooth="yes"/>
      <point x="367" y="421"/>
      <point x="386" y="378"/>
      <point x="386" y="276" type="curve" smooth="yes"/>
      <point x="386" y="174"/>
      <point x="367" y="138"/>
      <point x="328" y="138" type="curve" smooth="yes"/>
      <point x="308" y="138"/>
      <point x="279" y="151"/>
      <point x="264" y="175" type="curve"/>
      <point x="264" y="299" type="line" smooth="yes"/>
      <point x="264" y="380"/>
      <point x="287" y="421"/>
    </contour>
  </outline>
</glyph>
<glyph name="sigma1" format="2">
  <advance width="520"/>
  <unicode hex="03C2"/>
  <anchor x="261" y="-178" name="bottom"/>
  <anchor x="298" y="553" name="top"/>
  <outline>
    <contour>
      <point x="311" y="563" type="curve" smooth="yes"/>
      <point x="133" y="563"/>
      <point x="38" y="461"/>
      <point x="38" y="272" type="curve" smooth="yes"/>
      <point x="38" y="90"/>
      <point x="103" y="36"/>
      <point x="179" y="14" type="curve" smooth="yes"/>
      <point x="280" y="-15"/>
      <point x="299" y="-23"/>
      <point x="299" y="-50" type="curve" smooth="yes"/>
      <point x="299" y="-70"/>
      <point x="279" y="-126"/>
      <point x="229" y="-178" type="curve"/>
      <point x="436" y="-178" type="line"/>
      <point x="477" y="-125"/>
      <point x="500" y="-70"/>
      <point x="500" y="-9" type="curve" smooth="yes"/>
      <point x="500" y="60"/>
      <point x="472" y="115"/>
      <point x="369" y="138" type="curve" smooth="yes"/>
      <point x="243" y="166"/>
      <point x="243" y="201"/>
      <point x="243" y="269" type="curve" smooth="yes"/>
      <point x="243" y="357"/>
      <point x="264" y="413"/>
      <point x="313" y="413" type="curve" smooth="yes"/>
      <point x="341" y="413"/>
      <point x="397" y="399"/>
      <point x="447" y="377" type="curve"/>
      <point x="504" y="517" type="line"/>
      <point x="438" y="548"/>
      <point x="373" y="563"/>
    </contour>
  </outline>
</glyph>
<glyph name="tau" format="2">
  <advance width="493"/>
  <unicode hex="03C4"/>
  <anchor x="247" y="0" name="bottom"/>
  <anchor x="247" y="553" name="top"/>
  <outline>
    <contour>
      <point x="466" y="553" type="line"/>
      <point x="100" y="553" type="line"/>
      <point x="6" y="492" type="line"/>
      <point x="6" y="411" type="line"/>
      <point x="127" y="411" type="line"/>
      <point x="127" y="182" type="line" smooth="yes"/>
      <point x="127" y="31"/>
      <point x="193" y="-9"/>
      <point x="304" y="-9" type="curve" smooth="yes"/>
      <point x="366" y="-9"/>
      <point x="417" y="4"/>
      <point x="455" y="22" type="curve"/>
      <point x="455" y="161" type="line"/>
      <point x="422" y="148"/>
      <point x="396" y="140"/>
      <point x="367" y="140" type="curve" smooth="yes"/>
      <point x="342" y="140"/>
      <point x="329" y="159"/>
      <point x="329" y="193" type="curve" smooth="yes"/>
      <point x="329" y="411" type="line"/>
      <point x="466" y="411" type="line"/>
    </contour>
  </outline>
</glyph>
<glyph name="upsilon" format="2">
  <advance width="632"/>
  <unicode hex="03C5"/>
  <anchor x="317" y="0" name="bottom"/>
  <anchor x="322" y="553" name="top"/>
  <outline>
    <contour>
      <point x="315" y="-8" type="curve" smooth="yes"/>
      <point x="495" y="-8"/>
      <point x="590" y="87"/>
      <point x="590" y="298" type="curve" smooth="yes"/>
      <point x="590" y="388"/>
      <point x="580" y="460"/>
      <point x="555" y="553" type="curve"/>
      <point x="351" y="553" type="line"/>
      <point x="377" y="459"/>
      <point x="389" y="384"/>
      <point x="389" y="302" type="curve" smooth="yes"/>
      <point x="389" y="178"/>
      <point x="364" y="142"/>
      <point x="318" y="142" type="curve" smooth="yes"/>
      <point x="278" y="142"/>
      <point x="259" y="169"/>
      <point x="259" y="243" type="curve" smooth="yes"/>
      <point x="259" y="553" type="line"/>
      <point x="57" y="553" type="line"/>
      <point x="57" y="253" type="line" smooth="yes"/>
      <point x="57" y="106"/>
      <point x="113" y="-8"/>
    </contour>
  </outline>
</glyph>
<glyph name="psi" format="2">
  <advance width="870"/>
  <unicode hex="03C8"/>
  <anchor x="435" y="-240" name="bottom"/>
  <anchor x="435" y="759" name="top"/>
  <outline>
    <contour>
      <point x="534" y="142" type="curve"/>
      <point x="534" y="759" type="line"/>
      <point x="342" y="759" type="line"/>
      <point x="342" y="142" type="line"/>
      <point x="296" y="148"/>
      <point x="255" y="172"/>
      <point x="255" y="267" type="curve" smooth="yes"/>
      <point x="255" y="553" type="line"/>
      <point x="57" y="553" type="line"/>
      <point x="57" y="272" type="line" smooth="yes"/>
      <point x="57" y="71"/>
      <point x="172" y="-2"/>
      <point x="342" y="-8" type="curve"/>
      <point x="342" y="-240" type="line"/>
      <point x="534" y="-240" type="line"/>
      <point x="534" y="-8" type="line"/>
      <point x="699" y="1"/>
      <point x="828" y="75"/>
      <point x="828" y="280" type="curve" smooth="yes"/>
      <point x="828" y="368"/>
      <point x="815" y="452"/>
      <point x="781" y="553" type="curve"/>
      <point x="583" y="553" type="line"/>
      <point x="614" y="459"/>
      <point x="627" y="369"/>
      <point x="627" y="283" type="curve" smooth="yes"/>
      <point x="627" y="178"/>
      <point x="594" y="150"/>
    </contour>
  </outline>
</glyph>
<glyph name="uni03D2" format="2">
  <advance width="653"/>
  <unicode hex="03D2"/>
  <anchor x="335" y="714" name="top"/>
  <outline>
    <contour>
      <point x="323" y="457" type="curve"/>
      <point x="222" y="714" type="line"/>
      <point x="0" y="714" type="line"/>
      <point x="224" y="273" type="line"/>
      <point x="224" y="0" type="line"/>
      <point x="429" y="0" type="line"/>
      <point x="429" y="275" type="line"/>
      <point x="471" y="389"/>
      <point x="509" y="479"/>
      <point x="553" y="531" type="curve" smooth="yes"/>
      <point x="576" y="559"/>
      <point x="595" y="570"/>
      <point x="616" y="570" type="curve" smooth="yes"/>
      <point x="629" y="570"/>
      <point x="647" y="565"/>
      <point x="652" y="563" type="curve"/>
      <point x="652" y="703" type="line"/>
      <point x="621" y="715"/>
      <point x="583" y="720"/>
      <point x="555" y="720" type="curve" smooth="yes"/>
      <point x="494" y="720"/>
      <point x="453" y="700"/>
      <point x="420" y="654" type="curve" smooth="yes"/>
      <point x="381" y="600"/>
      <point x="360" y="542"/>
    </contour>
  </outline>
</glyph>
<glyph name="uni03DB" format="2">
  <advance width="519"/>
  <unicode hex="03DB"/>
  <anchor x="261" y="-227" name="bottom"/>
  <anchor x="261" y="553" name="top"/>
  <outline>
    <contour>
      <point x="247" y="-227" type="curve" smooth="yes"/>
      <point x="412" y="-227"/>
      <point x="500" y="-166"/>
      <point x="500" y="-26" type="curve" smooth="yes"/>
      <point x="500" y="63"/>
      <point x="472" y="115"/>
      <point x="369" y="138" type="curve" smooth="yes"/>
      <point x="248" y="165"/>
      <point x="243" y="201"/>
      <point x="243" y="269" type="curve" smooth="yes"/>
      <point x="243" y="357"/>
      <point x="259" y="413"/>
      <point x="304" y="413" type="curve" smooth="yes"/>
      <point x="330" y="413"/>
      <point x="385" y="399"/>
      <point x="433" y="377" type="curve"/>
      <point x="489" y="517" type="line"/>
      <point x="426" y="548"/>
      <point x="361" y="563"/>
      <point x="308" y="563" type="curve" smooth="yes"/>
      <point x="127" y="563"/>
      <point x="38" y="461"/>
      <point x="38" y="272" type="curve" smooth="yes"/>
      <point x="38" y="90"/>
      <point x="101" y="36"/>
      <point x="179" y="15" type="curve" smooth="yes"/>
      <point x="283" y="-13"/>
      <point x="299" y="-23"/>
      <point x="299" y="-50" type="curve" smooth="yes"/>
      <point x="299" y="-79"/>
      <point x="289" y="-95"/>
      <point x="229" y="-95" type="curve" smooth="yes"/>
      <point x="181" y="-95"/>
      <point x="159" y="-86"/>
      <point x="132" y="-76" type="curve"/>
      <point x="132" y="-212" type="line"/>
      <point x="158" y="-221"/>
      <point x="195" y="-227"/>
    </contour>
  </outline>
</glyph>
<glyph name="uni03DC" format="2">
  <advance width="589"/>
  <unicode hex="03DC"/>
  <anchor x="295" y="0" name="bottom"/>
  <anchor x="295" y="714" name="top"/>
  <outline>
    <contour>
      <point x="66" y="0" type="line"/>
      <point x="266" y="0" type="line"/>
      <point x="266" y="268" type="line"/>
      <point x="328" y="268" type="line"/>
      <point x="328" y="165" type="line"/>
      <point x="462" y="165" type="line"/>
      <point x="462" y="423" type="line"/>
      <point x="266" y="423" type="line"/>
      <point x="266" y="559" type="line"/>
      <point x="466" y="559" type="line"/>
      <point x="466" y="714" type="line"/>
      <point x="66" y="714" type="line"/>
    </contour>
  </outline>
</glyph>
<glyph name="uni03DD" format="2">
  <advance width="545"/>
  <unicode hex="03DD"/>
  <anchor x="272" y="-240" name="bottom"/>
  <anchor x="272" y="553" name="top"/>
  <outline>
    <contour>
      <point x="263" y="-240" type="line"/>
      <point x="263" y="131" type="line"/>
      <point x="355" y="131" type="line"/>
      <point x="355" y="36" type="line"/>
      <point x="500" y="36" type="line"/>
      <point x="500" y="269" type="line"/>
      <point x="263" y="269" type="line"/>
      <point x="263" y="415" type="line"/>
      <point x="509" y="415" type="line"/>
      <point x="509" y="552" type="line"/>
      <point x="66" y="552" type="line"/>
      <point x="66" y="-240" type="line"/>
    </contour>
  </outline>
</glyph>
<glyph name="uni03F1" format="2">
  <advance width="610"/>
  <unicode hex="03F1"/>
  <anchor x="305" y="-240" name="bottom"/>
  <anchor x="305" y="553" name="top"/>
  <outline>
    <contour>
      <point x="319" y="562" type="curve" smooth="yes"/>
      <point x="166" y="562"/>
      <point x="42" y="478"/>
      <point x="42" y="178" type="curve" smooth="yes"/>
      <point x="42" y="-112"/>
      <point x="147" y="-192"/>
      <point x="314" y="-198" type="curve" smooth="yes"/>
      <point x="317" y="-198"/>
      <point x="338" y="-201"/>
      <point x="338" y="-217" type="curve" smooth="yes"/>
      <point x="338" y="-226"/>
      <point x="335" y="-235"/>
      <point x="332" y="-240" type="curve"/>
      <point x="500" y="-240" type="line"/>
      <point x="502" y="-229"/>
      <point x="511" y="-201"/>
      <point x="511" y="-172" type="curve" smooth="yes"/>
      <point x="511" y="-85"/>
      <point x="475" y="-61"/>
      <point x="380" y="-55" type="curve" smooth="yes"/>
      <point x="264" y="-48"/>
      <point x="243" y="-14"/>
      <point x="242" y="27" type="curve"/>
      <point x="248" y="27" type="line"/>
      <point x="261" y="10"/>
      <point x="293" y="-10"/>
      <point x="343" y="-10" type="curve"/>
      <point x="489" y="-10"/>
      <point x="572" y="92"/>
      <point x="572" y="276" type="curve" smooth="yes"/>
      <point x="572" y="452"/>
      <point x="491" y="562"/>
    </contour>
    <contour>
      <point x="311" y="421" type="curve" smooth="yes"/>
      <point x="348" y="421"/>
      <point x="370" y="385"/>
      <point x="370" y="281" type="curve" smooth="yes"/>
      <point x="370" y="175"/>
      <point x="341" y="134"/>
      <point x="281" y="134" type="curve" smooth="yes"/>
      <point x="259" y="134"/>
      <point x="239" y="145"/>
      <point x="238" y="151" type="curve"/>
      <point x="238" y="159"/>
      <point x="238" y="168"/>
      <point x="238" y="186" type="curve" smooth="yes"/>
      <point x="238" y="366"/>
      <point x="263" y="421"/>
    </contour>
  </outline>
</glyph>
<glyph name="uni03FC" format="2">
  <advance width="628"/>
  <unicode hex="03FC"/>
  <anchor x="314" y="-240" name="bottom"/>
  <anchor x="314" y="553" name="top"/>
  <outline>
    <contour>
      <point x="63" y="-240" type="line"/>
      <point x="264" y="-240" type="line"/>
      <point x="264" y="-201" type="line"/>
      <point x="374" y="-201" type="line"/>
      <point x="374" y="-86" type="line"/>
      <point x="264" y="-86" type="line"/>
      <point x="265" y="-46"/>
      <point x="263" y="-16"/>
      <point x="252" y="23" type="curve"/>
      <point x="267" y="23" type="line"/>
      <point x="296" y="3"/>
      <point x="345" y="-10"/>
      <point x="390" y="-10" type="curve" smooth="yes"/>
      <point x="513" y="-10"/>
      <point x="590" y="95"/>
      <point x="590" y="276" type="curve" smooth="yes"/>
      <point x="590" y="456"/>
      <point x="478" y="563"/>
      <point x="330" y="563" type="curve" smooth="yes"/>
      <point x="155" y="563"/>
      <point x="63" y="451"/>
      <point x="63" y="273" type="curve" smooth="yes"/>
      <point x="63" y="-86" type="line"/>
      <point x="-4" y="-86" type="line"/>
      <point x="-4" y="-201" type="line"/>
      <point x="63" y="-201" type="line"/>
    </contour>
    <contour>
      <point x="328" y="138" type="curve" smooth="yes"/>
      <point x="308" y="138"/>
      <point x="279" y="151"/>
      <point x="264" y="175" type="curve"/>
      <point x="264" y="299" type="line" smooth="yes"/>
      <point x="264" y="380"/>
      <point x="287" y="421"/>
      <point x="327" y="421" type="curve" smooth="yes"/>
      <point x="367" y="421"/>
      <point x="386" y="378"/>
      <point x="386" y="276" type="curve" smooth="yes"/>
      <point x="386" y="174"/>
      <point x="367" y="138"/>
    </contour>
  </outline>
</glyph>
<glyph name="afii10068" format="2">
  <advance width="483"/>
  <unicode hex="0433"/>
  <anchor x="243" y="0" name="bottom"/>
  <anchor x="249" y="553" name="top"/>
  <outline>
    <contour>
      <point x="460" y="553" type="line"/>
      <point x="56" y="553" type="line"/>
      <point x="56" y="0" type="line"/>
      <point x="258" y="0" type="line"/>
      <point x="258" y="411" type="line"/>
      <point x="460" y="411" type="line"/>
    </contour>
  </outline>
</glyph>
<glyph name="afii10193" format="2">
  <advance width="657"/>
  <unicode hex="045F"/>
  <anchor x="329" y="-203" name="bottom"/>
  <anchor x="329" y="553" name="top"/>
  <outline>
    <contour>
      <point x="241" y="0" type="line"/>
      <point x="241" y="-203" type="line"/>
      <point x="416" y="-203" type="line"/>
      <point x="416" y="0" type="line"/>
      <point x="601" y="0" type="line"/>
      <point x="601" y="553" type="line"/>
      <point x="400" y="553" type="line"/>
      <point x="400" y="142" type="line"/>
      <point x="258" y="142" type="line"/>
      <point x="258" y="553" type="line"/>
      <point x="56" y="553" type="line"/>
      <point x="56" y="0" type="line"/>
    </contour>
  </outline>
</glyph>
<glyph name="uni0488" format="2">
  <advance width="924"/>
  <unicode hex="0488"/>
  <outline>
    <contour>
      <point x="615" y="456" type="curve"/>
      <point x="681" y="456" type="line"/>
      <point x="682" y="484"/>
      <point x="722" y="488"/>
      <point x="735" y="488" type="curve" smooth="yes"/>
      <point x="761" y="488"/>
      <point x="789" y="486"/>
      <point x="790" y="456" type="curve"/>
      <point x="851" y="456" type="line"/>
      <point x="849" y="517"/>
      <point x="802" y="557"/>
      <point x="735" y="557" type="curve" smooth="yes"/>
      <point x="675" y="557"/>
      <point x="618" y="515"/>
    </contour>
    <contour>
      <point x="76" y="-20" type="curve"/>
      <point x="141" y="-20" type="line"/>
      <point x="142" y="8"/>
      <point x="182" y="12"/>
      <point x="195" y="12" type="curve" smooth="yes"/>
      <point x="222" y="12"/>
      <point x="250" y="10"/>
      <point x="250" y="-20" type="curve"/>
      <point x="312" y="-20" type="line"/>
      <point x="310" y="41"/>
      <point x="263" y="81"/>
      <point x="195" y="81" type="curve" smooth="yes"/>
      <point x="135" y="81"/>
      <point x="79" y="39"/>
    </contour>
    <contour>
      <point x="340" y="-156" type="curve"/>
      <point x="406" y="-156" type="line"/>
      <point x="407" y="-128"/>
      <point x="447" y="-124"/>
      <point x="460" y="-124" type="curve" smooth="yes"/>
      <point x="486" y="-124"/>
      <point x="514" y="-126"/>
      <point x="515" y="-156" type="curve"/>
      <point x="577" y="-156" type="line"/>
      <point x="574" y="-95"/>
      <point x="527" y="-55"/>
      <point x="460" y="-55" type="curve" smooth="yes"/>
      <point x="400" y="-55"/>
      <point x="343" y="-97"/>
    </contour>
    <contour>
      <point x="16" y="221" type="curve"/>
      <point x="82" y="221" type="line"/>
      <point x="82" y="249"/>
      <point x="123" y="253"/>
      <point x="135" y="253" type="curve" smooth="yes"/>
      <point x="162" y="253"/>
      <point x="190" y="251"/>
      <point x="191" y="221" type="curve"/>
      <point x="252" y="221" type="line"/>
      <point x="250" y="282"/>
      <point x="203" y="322"/>
      <point x="135" y="322" type="curve" smooth="yes"/>
      <point x="75" y="322"/>
      <point x="19" y="280"/>
    </contour>
    <contour>
      <point x="76" y="456" type="curve"/>
      <point x="141" y="456" type="line"/>
      <point x="142" y="484"/>
      <point x="182" y="488"/>
      <point x="195" y="488" type="curve" smooth="yes"/>
      <point x="222" y="488"/>
      <point x="250" y="486"/>
      <point x="250" y="456" type="curve"/>
      <point x="312" y="456" type="line"/>
      <point x="310" y="517"/>
      <point x="263" y="557"/>
      <point x="195" y="557" type="curve" smooth="yes"/>
      <point x="135" y="557"/>
      <point x="79" y="515"/>
    </contour>
    <contour>
      <point x="615" y="-20" type="curve"/>
      <point x="681" y="-20" type="line"/>
      <point x="682" y="8"/>
      <point x="722" y="12"/>
      <point x="735" y="12" type="curve" smooth="yes"/>
      <point x="761" y="12"/>
      <point x="789" y="10"/>
      <point x="790" y="-20" type="curve"/>
      <point x="851" y="-20" type="line"/>
      <point x="849" y="41"/>
      <point x="802" y="81"/>
      <point x="735" y="81" type="curve" smooth="yes"/>
      <point x="675" y="81"/>
      <point x="618" y="39"/>
    </contour>
    <contour>
      <point x="672" y="221" type="curve"/>
      <point x="737" y="221" type="line"/>
      <point x="738" y="249"/>
      <point x="779" y="253"/>
      <point x="791" y="253" type="curve" smooth="yes"/>
      <point x="818" y="253"/>
      <point x="846" y="251"/>
      <point x="846" y="221" type="curve"/>
      <point x="908" y="221" type="line"/>
      <point x="906" y="282"/>
      <point x="859" y="322"/>
      <point x="791" y="322" type="curve" smooth="yes"/>
      <point x="731" y="322"/>
      <point x="675" y="280"/>
    </contour>
    <contour>
      <point x="340" y="595" type="curve"/>
      <point x="406" y="595" type="line"/>
      <point x="407" y="623"/>
      <point x="447" y="627"/>
      <point x="460" y="627" type="curve" smooth="yes"/>
      <point x="486" y="627"/>
      <point x="514" y="625"/>
      <point x="515" y="595" type="curve"/>
      <point x="577" y="595" type="line"/>
      <point x="574" y="656"/>
      <point x="527" y="696"/>
      <point x="460" y="696" type="curve" smooth="yes"/>
      <point x="400" y="696"/>
      <point x="343" y="654"/>
    </contour>
  </outline>
</glyph>
<glyph name="uni0489" format="2">
  <advance width="893"/>
  <unicode hex="0489"/>
  <outline>
    <contour>
      <point x="736" y="593" type="line"/>
      <point x="685" y="573"/>
      <point x="628" y="546"/>
      <point x="586" y="520" type="curve"/>
      <point x="585" y="511" type="line"/>
      <point x="671" y="435" type="line"/>
      <point x="708" y="464"/>
      <point x="762" y="502"/>
      <point x="807" y="532" type="curve"/>
    </contour>
    <contour>
      <point x="222" y="85" type="line"/>
      <point x="187" y="56"/>
      <point x="132" y="17"/>
      <point x="87" y="-12" type="curve"/>
      <point x="159" y="-74" type="line"/>
      <point x="208" y="-54"/>
      <point x="266" y="-26"/>
      <point x="307" y="0" type="curve"/>
      <point x="310" y="8" type="line"/>
    </contour>
    <contour>
      <point x="16" y="343" type="curve"/>
      <point x="16" y="256" type="line"/>
      <point x="64" y="233"/>
      <point x="123" y="209"/>
      <point x="170" y="196" type="curve"/>
      <point x="177" y="201" type="line"/>
      <point x="177" y="309" type="line"/>
      <point x="132" y="316"/>
      <point x="68" y="330"/>
    </contour>
    <contour>
      <point x="522" y="-17" type="line"/>
      <point x="399" y="-17" type="line"/>
      <point x="393" y="-65"/>
      <point x="380" y="-133"/>
      <point x="367" y="-188" type="curve"/>
      <point x="470" y="-188" type="line"/>
      <point x="492" y="-137"/>
      <point x="514" y="-74"/>
      <point x="527" y="-24" type="curve"/>
    </contour>
    <contour>
      <point x="690" y="105" type="line"/>
      <point x="604" y="29" type="line"/>
      <point x="631" y="-10"/>
      <point x="667" y="-68"/>
      <point x="695" y="-116" type="curve"/>
      <point x="767" y="-55" type="line"/>
      <point x="748" y="-2"/>
      <point x="723" y="59"/>
      <point x="699" y="104" type="curve"/>
    </contour>
    <contour>
      <point x="199" y="635" type="curve"/>
      <point x="125" y="574" type="line"/>
      <point x="144" y="522"/>
      <point x="170" y="460"/>
      <point x="195" y="416" type="curve"/>
      <point x="202" y="414" type="line"/>
      <point x="290" y="491" type="line"/>
      <point x="263" y="529"/>
      <point x="225" y="587"/>
    </contour>
    <contour>
      <point x="723" y="343" type="curve"/>
      <point x="716" y="338" type="line"/>
      <point x="716" y="230" type="line"/>
      <point x="761" y="223"/>
      <point x="825" y="209"/>
      <point x="877" y="196" type="curve"/>
      <point x="877" y="283" type="line"/>
      <point x="829" y="306"/>
      <point x="770" y="330"/>
    </contour>
    <contour>
      <point x="527" y="728" type="curve"/>
      <point x="424" y="728" type="line"/>
      <point x="402" y="677"/>
      <point x="380" y="614"/>
      <point x="367" y="564" type="curve"/>
      <point x="372" y="557" type="line"/>
      <point x="495" y="557" type="line"/>
      <point x="501" y="605"/>
      <point x="514" y="673"/>
    </contour>
  </outline>
</glyph>
<glyph name="uni052B" format="2">
  <advance width="1409"/>
  <unicode hex="052B"/>
  <anchor x="707" y="-203" name="bottom"/>
  <anchor x="707" y="553" name="top"/>
  <outline>
    <contour>
      <point x="566" y="349" type="line"/>
      <point x="566" y="219" type="line"/>
      <point x="848" y="219" type="line"/>
      <point x="848" y="349" type="line"/>
    </contour>
    <component base="afii10069"/>
    <component base="afii10076" xOffset="737"/>
  </outline>
</glyph>
<glyph name="uni052F" format="2">
  <advance width="747"/>
  <unicode hex="052F"/>
  <anchor x="379" y="-203" name="bottom"/>
  <anchor x="379" y="553" name="top"/>
  <outline>
    <contour>
      <point x="489" y="0" type="line"/>
      <point x="570" y="0" type="line"/>
      <point x="570" y="-203" type="line"/>
      <point x="737" y="-203" type="line"/>
      <point x="737" y="133" type="line"/>
      <point x="613" y="133" type="line"/>
    </contour>
    <component base="afii10077"/>
  </outline>
</glyph>
<glyph name="uni1ABA" format="2">
  <unicode hex="1ABA"/>
  <anchor x="-9" y="90" name="_bottom"/>
  <anchor x="-7" y="-259" name="bottom"/>
  <outline>
    <contour>
      <point x="-4" y="40" type="line"/>
      <point x="-47" y="-107" type="line"/>
      <point x="53" y="-141" type="line"/>
      <point x="113" y="40" type="line"/>
    </contour>
    <contour>
      <point x="-131" y="-176" type="curve" smooth="yes"/>
      <point x="-131" y="-232"/>
      <point x="-91" y="-259"/>
      <point x="-39" y="-259" type="curve" smooth="yes"/>
      <point x="10" y="-259"/>
      <point x="54" y="-232"/>
      <point x="54" y="-176" type="curve" smooth="yes"/>
      <point x="54" y="-122"/>
      <point x="12" y="-92"/>
      <point x="-41" y="-92" type="curve" smooth="yes"/>
      <point x="-85" y="-92"/>
      <point x="-131" y="-120"/>
    </contour>
  </outline>
</glyph>
<glyph name="uni1D00" format="2">
  <advance width="535"/>
  <unicode hex="1D00"/>
  <anchor x="267" y="0" name="bottom"/>
  <anchor x="267" y="553" name="top"/>
  <outline>
    <contour>
      <point x="-5" y="0" type="line"/>
      <point x="170" y="0" type="line"/>
      <point x="190" y="103" type="line"/>
      <point x="348" y="103" type="line"/>
      <point x="368" y="0" type="line"/>
      <point x="541" y="0" type="line"/>
      <point x="375" y="552" type="line"/>
      <point x="158" y="552" type="line"/>
    </contour>
    <contour>
      <point x="220" y="225" type="line"/>
      <point x="247" y="339" type="line" smooth="yes"/>
      <point x="257" y="381"/>
      <point x="263" y="410"/>
      <point x="268" y="448" type="curve"/>
      <point x="274" y="410"/>
      <point x="281" y="379"/>
      <point x="290" y="341" type="curve" smooth="yes"/>
      <point x="318" y="225" type="line"/>
    </contour>
  </outline>
</glyph>
<glyph name="uni1D03" format="2">
  <advance width="592"/>
  <unicode hex="1D03"/>
  <anchor x="303" y="0" name="bottom"/>
  <anchor x="303" y="553" name="top"/>
  <outline>
    <contour>
      <point x="-4" y="230" type="line"/>
      <point x="591" y="230" type="line"/>
      <point x="591" y="339" type="line"/>
      <point x="-4" y="339" type="line"/>
    </contour>
    <component base="uni0299"/>
  </outline>
</glyph>
<glyph name="uni1D04" format="2">
  <advance width="469"/>
  <unicode hex="1D04"/>
  <anchor x="235" y="0" name="bottom"/>
  <anchor x="235" y="553" name="top"/>
  <outline>
    <contour>
      <point x="283" y="436" type="curve" smooth="yes"/>
      <point x="330" y="436"/>
      <point x="366" y="421"/>
      <point x="405" y="402" type="curve"/>
      <point x="452" y="519" type="line"/>
      <point x="395" y="546"/>
      <point x="334" y="558"/>
      <point x="286" y="558" type="curve" smooth="yes"/>
      <point x="120" y="558"/>
      <point x="28" y="440"/>
      <point x="28" y="273" type="curve" smooth="yes"/>
      <point x="28" y="106"/>
      <point x="102" y="-8"/>
      <point x="277" y="-8" type="curve" smooth="yes"/>
      <point x="331" y="-8"/>
      <point x="382" y="2"/>
      <point x="428" y="23" type="curve"/>
      <point x="428" y="149" type="line"/>
      <point x="387" y="129"/>
      <point x="344" y="114"/>
      <point x="296" y="114" type="curve" smooth="yes"/>
      <point x="226" y="114"/>
      <point x="190" y="169"/>
      <point x="190" y="273" type="curve" smooth="yes"/>
      <point x="190" y="375"/>
      <point x="226" y="436"/>
    </contour>
  </outline>
</glyph>
<glyph name="uni1D07" format="2">
  <advance width="383"/>
  <unicode hex="1D07"/>
  <anchor x="191" y="0" name="bottom"/>
  <anchor x="191" y="553" name="top"/>
  <outline>
    <contour>
      <point x="359" y="0" type="line"/>
      <point x="359" y="121" type="line"/>
      <point x="202" y="121" type="line"/>
      <point x="202" y="225" type="line"/>
      <point x="347" y="225" type="line"/>
      <point x="347" y="344" type="line"/>
      <point x="202" y="344" type="line"/>
      <point x="202" y="431" type="line"/>
      <point x="359" y="431" type="line"/>
      <point x="359" y="550" type="line"/>
      <point x="43" y="550" type="line"/>
      <point x="43" y="0" type="line"/>
    </contour>
  </outline>
</glyph>
<glyph name="uni1D0A" format="2">
  <advance width="253"/>
  <unicode hex="1D0A"/>
  <anchor x="127" y="-172" name="bottom"/>
  <anchor x="127" y="553" name="top"/>
  <outline>
    <contour>
      <point x="9" y="-172" type="curve" smooth="yes"/>
      <point x="125" y="-172"/>
      <point x="208" y="-112"/>
      <point x="208" y="54" type="curve" smooth="yes"/>
      <point x="208" y="550" type="line"/>
      <point x="47" y="550" type="line"/>
      <point x="47" y="41" type="line" smooth="yes"/>
      <point x="47" y="-25"/>
      <point x="41" y="-57"/>
      <point x="-16" y="-57" type="curve" smooth="yes"/>
      <point x="-36" y="-57"/>
      <point x="-53" y="-52"/>
      <point x="-69" y="-49" type="curve"/>
      <point x="-69" y="-165" type="line"/>
      <point x="-50" y="-169"/>
      <point x="-25" y="-172"/>
    </contour>
  </outline>
</glyph>
<glyph name="uni1D0B" format="2">
  <advance width="502"/>
  <unicode hex="1D0B"/>
  <anchor x="251" y="0" name="bottom"/>
  <anchor x="251" y="553" name="top"/>
  <outline>
    <contour>
      <point x="43" y="0" type="line"/>
      <point x="202" y="0" type="line"/>
      <point x="202" y="184" type="line"/>
      <point x="241" y="210" type="line"/>
      <point x="326" y="0" type="line"/>
      <point x="505" y="0" type="line"/>
      <point x="354" y="303" type="line"/>
      <point x="510" y="552" type="line"/>
      <point x="337" y="552" type="line"/>
      <point x="244" y="381" type="line" smooth="yes"/>
      <point x="232" y="359"/>
      <point x="213" y="335"/>
      <point x="202" y="311" type="curve"/>
      <point x="202" y="552" type="line"/>
      <point x="43" y="552" type="line"/>
    </contour>
  </outline>
</glyph>
<glyph name="uni1D0D" format="2">
  <advance width="701"/>
  <unicode hex="1D0D"/>
  <anchor x="350" y="0" name="bottom"/>
  <anchor x="350" y="553" name="top"/>
  <outline>
    <contour>
      <point x="43" y="0" type="line"/>
      <point x="182" y="0" type="line"/>
      <point x="182" y="239" type="line" smooth="yes"/>
      <point x="182" y="295"/>
      <point x="178" y="366"/>
      <point x="176" y="396" type="curve"/>
      <point x="179" y="396" type="line"/>
      <point x="275" y="0" type="line"/>
      <point x="427" y="0" type="line"/>
      <point x="516" y="395" type="line"/>
      <point x="520" y="395" type="line"/>
      <point x="518" y="365"/>
      <point x="514" y="293"/>
      <point x="514" y="241" type="curve" smooth="yes"/>
      <point x="514" y="0" type="line"/>
      <point x="658" y="0" type="line"/>
      <point x="658" y="550" type="line"/>
      <point x="450" y="550" type="line"/>
      <point x="356" y="159" type="line"/>
      <point x="353" y="159" type="line"/>
      <point x="253" y="550" type="line"/>
      <point x="43" y="550" type="line"/>
    </contour>
  </outline>
</glyph>
<glyph name="uni1D0F" format="2">
  <advance width="570"/>
  <unicode hex="1D0F"/>
  <anchor x="285" y="0" name="bottom"/>
  <anchor x="285" y="553" name="top"/>
  <outline>
    <contour>
      <point x="541" y="276" type="curve" smooth="yes"/>
      <point x="541" y="447"/>
      <point x="470" y="558"/>
      <point x="285" y="558" type="curve" smooth="yes"/>
      <point x="105" y="558"/>
      <point x="28" y="447"/>
      <point x="28" y="276" type="curve" smooth="yes"/>
      <point x="28" y="105"/>
      <point x="105" y="-8"/>
      <point x="284" y="-8" type="curve" smooth="yes"/>
      <point x="470" y="-8"/>
      <point x="541" y="105"/>
    </contour>
    <contour>
      <point x="194" y="276" type="curve" smooth="yes"/>
      <point x="194" y="375"/>
      <point x="217" y="437"/>
      <point x="285" y="437" type="curve" smooth="yes"/>
      <point x="352" y="437"/>
      <point x="375" y="375"/>
      <point x="375" y="276" type="curve" smooth="yes"/>
      <point x="375" y="176"/>
      <point x="352" y="116"/>
      <point x="284" y="116" type="curve" smooth="yes"/>
      <point x="219" y="116"/>
      <point x="194" y="176"/>
    </contour>
  </outline>
</glyph>
<glyph name="uni1D18" format="2">
  <advance width="447"/>
  <unicode hex="1D18"/>
  <anchor x="225" y="0" name="bottom"/>
  <anchor x="225" y="553" name="top"/>
  <outline>
    <contour>
      <point x="232" y="553" type="curve" smooth="yes"/>
      <point x="43" y="553" type="line"/>
      <point x="43" y="0" type="line"/>
      <point x="202" y="0" type="line"/>
      <point x="202" y="186" type="line"/>
      <point x="237" y="186" type="line" smooth="yes"/>
      <point x="383" y="186"/>
      <point x="432" y="278"/>
      <point x="432" y="378" type="curve" smooth="yes"/>
      <point x="432" y="490"/>
      <point x="363" y="553"/>
    </contour>
    <contour>
      <point x="231" y="433" type="line" smooth="yes"/>
      <point x="260" y="433"/>
      <point x="272" y="412"/>
      <point x="272" y="377" type="curve" smooth="yes"/>
      <point x="272" y="327"/>
      <point x="243" y="306"/>
      <point x="221" y="306" type="curve" smooth="yes"/>
      <point x="202" y="306" type="line"/>
      <point x="202" y="433" type="line"/>
    </contour>
  </outline>
</glyph>
<glyph name="uni1D1C" format="2">
  <advance width="522"/>
  <unicode hex="1D1C"/>
  <anchor x="261" y="0" name="bottom"/>
  <anchor x="261" y="553" name="top"/>
  <outline>
    <contour>
      <point x="479" y="550" type="line"/>
      <point x="336" y="550" type="line"/>
      <point x="336" y="228" type="line" smooth="yes"/>
      <point x="336" y="149"/>
      <point x="315" y="116"/>
      <point x="260" y="116" type="curve" smooth="yes"/>
      <point x="214" y="116"/>
      <point x="187" y="149"/>
      <point x="187" y="227" type="curve" smooth="yes"/>
      <point x="187" y="550" type="line"/>
      <point x="44" y="550" type="line"/>
      <point x="44" y="216" type="line" smooth="yes"/>
      <point x="44" y="73"/>
      <point x="137" y="-8"/>
      <point x="258" y="-8" type="curve" smooth="yes"/>
      <point x="394" y="-8"/>
      <point x="479" y="80"/>
      <point x="479" y="219" type="curve" smooth="yes"/>
    </contour>
  </outline>
</glyph>
<glyph name="uni1D21" format="2">
  <advance width="771"/>
  <unicode hex="1D21"/>
  <anchor x="386" y="0" name="bottom"/>
  <anchor x="386" y="553" name="top"/>
  <outline>
    <contour>
      <point x="140" y="0" type="line"/>
      <point x="324" y="0" type="line"/>
      <point x="371" y="206" type="line" smooth="yes"/>
      <point x="381" y="250"/>
      <point x="384" y="321"/>
      <point x="386" y="362" type="curve"/>
      <point x="390" y="362" type="line"/>
      <point x="393" y="321"/>
      <point x="395" y="253"/>
      <point x="405" y="209" type="curve" smooth="yes"/>
      <point x="453" y="0" type="line"/>
      <point x="634" y="0" type="line"/>
      <point x="760" y="553" type="line"/>
      <point x="618" y="553" type="line"/>
      <point x="561" y="273" type="line" smooth="yes"/>
      <point x="556" y="248"/>
      <point x="543" y="178"/>
      <point x="538" y="138" type="curve"/>
      <point x="536" y="138" type="line"/>
      <point x="524" y="199"/>
      <point x="496" y="301"/>
      <point x="488" y="342" type="curve" smooth="yes"/>
      <point x="449" y="553" type="line"/>
      <point x="324" y="553" type="line"/>
      <point x="285" y="353" type="line" smooth="yes"/>
      <point x="276" y="308"/>
      <point x="251" y="198"/>
      <point x="240" y="141" type="curve"/>
      <point x="236" y="141" type="line"/>
      <point x="230" y="180"/>
      <point x="215" y="251"/>
      <point x="210" y="274" type="curve" smooth="yes"/>
      <point x="154" y="553" type="line"/>
      <point x="13" y="553" type="line"/>
    </contour>
  </outline>
</glyph>
<glyph name="uni1D24" format="2">
  <advance width="537"/>
  <unicode hex="1D24"/>
  <anchor x="269" y="0" name="bottom"/>
  <anchor x="269" y="553" name="top"/>
  <outline>
    <contour>
      <point x="261" y="-10" type="curve" smooth="yes"/>
      <point x="342" y="-10"/>
      <point x="408" y="2"/>
      <point x="478" y="26" type="curve"/>
      <point x="478" y="169" type="line"/>
      <point x="407" y="137"/>
      <point x="336" y="129"/>
      <point x="290" y="129" type="curve" smooth="yes"/>
      <point x="255" y="129"/>
      <point x="236" y="147"/>
      <point x="236" y="167" type="curve" smooth="yes"/>
      <point x="236" y="196"/>
      <point x="263" y="211"/>
      <point x="347" y="215" type="curve"/>
      <point x="347" y="258" type="line"/>
      <point x="462" y="280"/>
      <point x="490" y="335"/>
      <point x="490" y="410" type="curve" smooth="yes"/>
      <point x="490" y="513"/>
      <point x="407" y="563"/>
      <point x="264" y="563" type="curve" smooth="yes"/>
      <point x="191" y="563"/>
      <point x="118" y="544"/>
      <point x="46" y="513" type="curve"/>
      <point x="95" y="395" type="line"/>
      <point x="142" y="420"/>
      <point x="197" y="434"/>
      <point x="238" y="434" type="curve" smooth="yes"/>
      <point x="275" y="434"/>
      <point x="284" y="419"/>
      <point x="284" y="399" type="curve" smooth="yes"/>
      <point x="284" y="373"/>
      <point x="248" y="363"/>
      <point x="215" y="359" type="curve"/>
      <point x="215" y="315" type="line"/>
      <point x="86" y="293"/>
      <point x="33" y="241"/>
      <point x="33" y="159" type="curve" smooth="yes"/>
      <point x="33" y="60"/>
      <point x="82" y="-10"/>
    </contour>
  </outline>
</glyph>
<glyph name="uni1D7A" format="2">
  <advance width="1166"/>
  <unicode hex="1D7A"/>
  <anchor x="260" y="0" name="bottom_1"/>
  <anchor x="803" y="0" name="bottom_2"/>
  <anchor x="213" y="277" name="center_1"/>
  <anchor x="796" y="277" name="center_2"/>
  <anchor x="217" y="664" name="top_1"/>
  <anchor x="637" y="760" name="top_2"/>
  <anchor x="409" y="664" name="topright_1"/>
  <anchor x="1066" y="760" name="topright_2"/>
  <outline>
    <contour>
      <point x="35" y="-75" type="line"/>
      <point x="167" y="-75" type="line"/>
      <point x="828" y="760" type="line"/>
      <point x="696" y="760" type="line"/>
    </contour>
    <component base="t"/>
    <component base="h" xOffset="478"/>
  </outline>
</glyph>
<glyph name="uni1D7B" format="2">
  <advance width="448"/>
  <unicode hex="1D7B"/>
  <anchor x="225" y="0" name="bottom"/>
  <anchor x="225" y="553" name="top"/>
  <outline>
    <contour>
      <point x="389" y="352" type="line"/>
      <point x="61" y="352" type="line"/>
      <point x="61" y="210" type="line"/>
      <point x="389" y="210" type="line"/>
    </contour>
    <component base="uni026A"/>
  </outline>
</glyph>
<glyph name="uni1D7D" format="2">
  <advance width="643"/>
  <unicode hex="1D7D"/>
  <anchor x="158" y="-240" name="bottom"/>
  <anchor x="305" y="553" name="top"/>
  <anchor x="591" y="553" name="topright"/>
  <outline>
    <contour>
      <point x="651" y="332" type="line"/>
      <point x="-7" y="332" type="line"/>
      <point x="-7" y="218" type="line"/>
      <point x="651" y="218" type="line"/>
    </contour>
    <component base="p"/>
  </outline>
</glyph>
<glyph name="uni1D7F" format="2">
  <advance width="662"/>
  <unicode hex="1D7F"/>
  <anchor x="331" y="-11" name="bottom"/>
  <anchor x="331" y="553" name="top"/>
  <outline>
    <contour>
      <point x="677" y="332" type="line"/>
      <point x="-12" y="332" type="line"/>
      <point x="-12" y="218" type="line"/>
      <point x="677" y="218" type="line"/>
    </contour>
    <component base="uni028A"/>
  </outline>
</glyph>
<glyph name="gravemacron" format="2">
  <unicode hex="1DC5"/>
  <anchor x="-7" y="539" name="_top"/>
  <anchor x="-5" y="757" name="top"/>
  <outline>
    <contour>
      <point x="139" y="589" type="line"/>
      <point x="139" y="693" type="line"/>
      <point x="7" y="693" type="line"/>
      <point x="-103" y="757" type="line"/>
      <point x="-151" y="668" type="line"/>
      <point x="-15" y="589" type="line"/>
    </contour>
  </outline>
</glyph>
<glyph name="uni1DFC" format="2">
  <unicode hex="1DFC"/>
  <outline>
    <contour>
      <point x="321" y="-217" type="line"/>
      <point x="310" y="-86"/>
      <point x="184" y="-38"/>
      <point x="2" y="-38" type="curve" smooth="yes"/>
      <point x="-187" y="-38"/>
      <point x="-308" y="-86"/>
      <point x="-321" y="-217" type="curve"/>
      <point x="-206" y="-217" type="line"/>
      <point x="-194" y="-166"/>
      <point x="-113" y="-156"/>
      <point x="1" y="-156" type="curve" smooth="yes"/>
      <point x="106" y="-156"/>
      <point x="196" y="-165"/>
      <point x="209" y="-217" type="curve"/>
    </contour>
  </outline>
</glyph>
<glyph name="ll-middleWelsh" format="2">
  <advance width="646"/>
  <unicode hex="1EFB"/>
  <anchor x="323" y="0" name="bottom"/>
  <anchor x="323" y="760" name="top"/>
  <anchor x="157" y="277" name="center_1"/>
  <anchor x="480" y="277" name="center_2"/>
  <anchor x="277" y="760" name="topright_1"/>
  <anchor x="600" y="760" name="topright_2"/>
  <outline>
    <contour>
      <point x="4" y="570" type="line"/>
      <point x="642" y="570" type="line"/>
      <point x="642" y="688" type="line"/>
      <point x="4" y="688" type="line"/>
    </contour>
    <component base="l"/>
    <component base="l" xOffset="323"/>
  </outline>
</glyph>
<glyph name="uni1FBD" format="2">
  <advance width="254"/>
  <unicode hex="1FBD"/>
  <anchor x="132" y="545" name="_top"/>
  <outline>
    <contour>
      <point x="43" y="595" type="line"/>
      <point x="160" y="597"/>
      <point x="217" y="645"/>
      <point x="217" y="719" type="curve" smooth="yes"/>
      <point x="217" y="764"/>
      <point x="182" y="798"/>
      <point x="130" y="798" type="curve" smooth="yes"/>
      <point x="81" y="798"/>
      <point x="53" y="779"/>
      <point x="53" y="744" type="curve" smooth="yes"/>
      <point x="53" y="710"/>
      <point x="69" y="690"/>
      <point x="120" y="689" type="curve"/>
      <point x="120" y="663"/>
      <point x="82" y="644"/>
      <point x="43" y="642" type="curve"/>
    </contour>
  </outline>
</glyph>
<glyph name="uni1FBE" format="2">
  <advance width="576"/>
  <unicode hex="1FBE"/>
  <outline>
    <contour>
      <point x="331" y="-98" type="curve" smooth="yes"/>
      <point x="331" y="-52" type="line"/>
      <point x="203" y="-52" type="line"/>
      <point x="203" y="-127" type="line" smooth="yes"/>
      <point x="203" y="-202"/>
      <point x="240" y="-240"/>
      <point x="315" y="-240" type="curve" smooth="yes"/>
      <point x="338" y="-240"/>
      <point x="364" y="-234"/>
      <point x="379" y="-227" type="curve"/>
      <point x="379" y="-131" type="line"/>
      <point x="371" y="-134"/>
      <point x="363" y="-136"/>
      <point x="356" y="-136" type="curve" smooth="yes"/>
      <point x="344" y="-136"/>
      <point x="331" y="-127"/>
    </contour>
  </outline>
</glyph>
<glyph name="uni1FC1" format="2">
  <advance width="545"/>
  <unicode hex="1FC1"/>
  <anchor x="269" y="531" name="_top"/>
  <outline>
    <contour>
      <point x="88" y="748" type="curve"/>
      <point x="167" y="748" type="line"/>
      <point x="169" y="777"/>
      <point x="178" y="786"/>
      <point x="192" y="786" type="curve" smooth="yes"/>
      <point x="241" y="786"/>
      <point x="305" y="749"/>
      <point x="356" y="749" type="curve" smooth="yes"/>
      <point x="397" y="749"/>
      <point x="448" y="786"/>
      <point x="457" y="875" type="curve"/>
      <point x="377" y="875" type="line"/>
      <point x="369" y="842"/>
      <point x="354" y="837"/>
      <point x="350" y="837" type="curve" smooth="yes"/>
      <point x="299" y="837"/>
      <point x="229" y="874"/>
      <point x="192" y="874" type="curve" smooth="yes"/>
      <point x="140" y="874"/>
      <point x="97" y="839"/>
    </contour>
    <contour>
      <point x="168" y="581" type="curve"/>
      <point x="213" y="581"/>
      <point x="244" y="605"/>
      <point x="244" y="647" type="curve"/>
      <point x="244" y="692"/>
      <point x="213" y="716"/>
      <point x="168" y="716" type="curve"/>
      <point x="121" y="716"/>
      <point x="93" y="692"/>
      <point x="93" y="647" type="curve"/>
      <point x="93" y="605"/>
      <point x="121" y="581"/>
    </contour>
    <contour>
      <point x="364" y="581" type="curve"/>
      <point x="410" y="581"/>
      <point x="440" y="605"/>
      <point x="440" y="647" type="curve"/>
      <point x="440" y="692"/>
      <point x="410" y="716"/>
      <point x="364" y="716" type="curve"/>
      <point x="315" y="716"/>
      <point x="288" y="692"/>
      <point x="288" y="647" type="curve"/>
      <point x="288" y="605"/>
      <point x="315" y="581"/>
    </contour>
  </outline>
</glyph>
<glyph name="uni1FCD" format="2">
  <advance width="542"/>
  <unicode hex="1FCD"/>
  <anchor x="274" y="546" name="_top"/>
  <anchor x="283" y="778" name="top"/>
  <outline>
    <contour>
      <point x="371" y="606" type="curve"/>
      <point x="457" y="606" type="line"/>
      <point x="457" y="618" type="line"/>
      <point x="442" y="653"/>
      <point x="425" y="717"/>
      <point x="419" y="766" type="curve"/>
      <point x="272" y="766" type="line"/>
      <point x="272" y="750" type="line"/>
      <point x="291" y="705"/>
      <point x="331" y="648"/>
    </contour>
    <contour>
      <point x="116" y="596" type="line"/>
      <point x="206" y="596"/>
      <point x="261" y="636"/>
      <point x="261" y="697" type="curve" smooth="yes"/>
      <point x="261" y="749"/>
      <point x="232" y="778"/>
      <point x="172" y="778" type="curve" smooth="yes"/>
      <point x="121" y="778"/>
      <point x="101" y="755"/>
      <point x="101" y="727" type="curve" smooth="yes"/>
      <point x="101" y="681"/>
      <point x="144" y="691"/>
      <point x="144" y="665" type="curve" smooth="yes"/>
      <point x="144" y="650"/>
      <point x="144" y="640"/>
      <point x="116" y="638" type="curve"/>
    </contour>
  </outline>
</glyph>
<glyph name="uni1FCE" format="2">
  <advance width="542"/>
  <unicode hex="1FCE"/>
  <anchor x="248" y="546" name="_top"/>
  <anchor x="271" y="778" name="top"/>
  <outline>
    <contour>
      <point x="257" y="606" type="line"/>
      <point x="343" y="606" type="line"/>
      <point x="383" y="648"/>
      <point x="423" y="705"/>
      <point x="442" y="750" type="curve"/>
      <point x="442" y="766" type="line"/>
      <point x="295" y="766" type="line"/>
      <point x="289" y="717"/>
      <point x="272" y="653"/>
      <point x="257" y="618" type="curve"/>
    </contour>
    <contour>
      <point x="106" y="596" type="line"/>
      <point x="196" y="596"/>
      <point x="251" y="636"/>
      <point x="251" y="697" type="curve" smooth="yes"/>
      <point x="251" y="749"/>
      <point x="222" y="778"/>
      <point x="162" y="778" type="curve" smooth="yes"/>
      <point x="111" y="778"/>
      <point x="91" y="755"/>
      <point x="91" y="727" type="curve" smooth="yes"/>
      <point x="91" y="681"/>
      <point x="134" y="691"/>
      <point x="134" y="663" type="curve" smooth="yes"/>
      <point x="134" y="649"/>
      <point x="129" y="640"/>
      <point x="106" y="638" type="curve"/>
    </contour>
  </outline>
</glyph>
<glyph name="uni1FCF" format="2">
  <advance width="567"/>
  <unicode hex="1FCF"/>
  <anchor x="289" y="533" name="_top"/>
  <anchor x="291" y="891" name="top"/>
  <outline>
    <contour>
      <point x="105" y="764" type="curve"/>
      <point x="184" y="764" type="line"/>
      <point x="192" y="798"/>
      <point x="207" y="802"/>
      <point x="209" y="802" type="curve"/>
      <point x="259" y="802"/>
      <point x="322" y="765"/>
      <point x="373" y="765" type="curve" smooth="yes"/>
      <point x="414" y="765"/>
      <point x="465" y="802"/>
      <point x="474" y="891" type="curve"/>
      <point x="394" y="891" type="line"/>
      <point x="386" y="858"/>
      <point x="371" y="853"/>
      <point x="367" y="853" type="curve" smooth="yes"/>
      <point x="316" y="853"/>
      <point x="246" y="890"/>
      <point x="209" y="890" type="curve" smooth="yes"/>
      <point x="157" y="890"/>
      <point x="114" y="855"/>
    </contour>
    <contour>
      <point x="215" y="583" type="line"/>
      <point x="304" y="583"/>
      <point x="366" y="623"/>
      <point x="366" y="682" type="curve" smooth="yes"/>
      <point x="366" y="729"/>
      <point x="336" y="758"/>
      <point x="275" y="758" type="curve" smooth="yes"/>
      <point x="223" y="758"/>
      <point x="202" y="735"/>
      <point x="202" y="707" type="curve" smooth="yes"/>
      <point x="202" y="668"/>
      <point x="245" y="678"/>
      <point x="245" y="652" type="curve" smooth="yes"/>
      <point x="245" y="637"/>
      <point x="243" y="627"/>
      <point x="215" y="625" type="curve"/>
    </contour>
  </outline>
</glyph>
<glyph name="uni1FDD" format="2">
  <advance width="576"/>
  <unicode hex="1FDD"/>
  <outline>
    <contour>
      <point x="377" y="606" type="curve"/>
      <point x="463" y="606" type="line"/>
      <point x="463" y="618" type="line"/>
      <point x="448" y="653"/>
      <point x="431" y="717"/>
      <point x="425" y="766" type="curve"/>
      <point x="278" y="766" type="line"/>
      <point x="278" y="750" type="line"/>
      <point x="297" y="705"/>
      <point x="337" y="648"/>
    </contour>
    <contour>
      <point x="240" y="596" type="curve"/>
      <point x="240" y="638" type="line"/>
      <point x="217" y="640"/>
      <point x="213" y="648"/>
      <point x="213" y="665" type="curve" smooth="yes"/>
      <point x="213" y="691"/>
      <point x="256" y="681"/>
      <point x="256" y="727" type="curve" smooth="yes"/>
      <point x="256" y="755"/>
      <point x="236" y="778"/>
      <point x="184" y="778" type="curve" smooth="yes"/>
      <point x="124" y="778"/>
      <point x="96" y="749"/>
      <point x="96" y="697" type="curve" smooth="yes"/>
      <point x="96" y="636"/>
      <point x="151" y="596"/>
    </contour>
  </outline>
</glyph>
<glyph name="uni1FDE" format="2">
  <advance width="576"/>
  <unicode hex="1FDE"/>
  <outline>
    <contour>
      <point x="288" y="618" type="curve"/>
      <point x="288" y="606" type="line"/>
      <point x="374" y="606" type="line"/>
      <point x="414" y="648"/>
      <point x="454" y="705"/>
      <point x="473" y="750" type="curve"/>
      <point x="473" y="766" type="line"/>
      <point x="326" y="766" type="line"/>
      <point x="320" y="717"/>
      <point x="303" y="653"/>
    </contour>
    <contour>
      <point x="256" y="596" type="curve"/>
      <point x="256" y="638" type="line"/>
      <point x="229" y="640"/>
      <point x="229" y="650"/>
      <point x="229" y="665" type="curve" smooth="yes"/>
      <point x="229" y="691"/>
      <point x="272" y="681"/>
      <point x="272" y="727" type="curve" smooth="yes"/>
      <point x="272" y="755"/>
      <point x="252" y="778"/>
      <point x="200" y="778" type="curve" smooth="yes"/>
      <point x="140" y="778"/>
      <point x="112" y="749"/>
      <point x="112" y="697" type="curve" smooth="yes"/>
      <point x="112" y="636"/>
      <point x="167" y="596"/>
    </contour>
  </outline>
</glyph>
<glyph name="uni1FDF" format="2">
  <advance width="567"/>
  <unicode hex="1FDF"/>
  <outline>
    <contour>
      <point x="105" y="764" type="curve"/>
      <point x="184" y="764" type="line"/>
      <point x="192" y="798"/>
      <point x="207" y="802"/>
      <point x="209" y="802" type="curve"/>
      <point x="259" y="802"/>
      <point x="322" y="765"/>
      <point x="373" y="765" type="curve" smooth="yes"/>
      <point x="414" y="765"/>
      <point x="465" y="802"/>
      <point x="474" y="891" type="curve"/>
      <point x="394" y="891" type="line"/>
      <point x="386" y="858"/>
      <point x="371" y="853"/>
      <point x="367" y="853" type="curve" smooth="yes"/>
      <point x="316" y="853"/>
      <point x="246" y="890"/>
      <point x="209" y="890" type="curve" smooth="yes"/>
      <point x="157" y="890"/>
      <point x="114" y="855"/>
    </contour>
    <contour>
      <point x="357" y="583" type="curve"/>
      <point x="357" y="625" type="line"/>
      <point x="329" y="627"/>
      <point x="328" y="637"/>
      <point x="328" y="652" type="curve" smooth="yes"/>
      <point x="328" y="678"/>
      <point x="371" y="668"/>
      <point x="371" y="707" type="curve" smooth="yes"/>
      <point x="371" y="735"/>
      <point x="349" y="758"/>
      <point x="297" y="758" type="curve" smooth="yes"/>
      <point x="236" y="758"/>
      <point x="206" y="729"/>
      <point x="206" y="682" type="curve" smooth="yes"/>
      <point x="206" y="623"/>
      <point x="269" y="583"/>
    </contour>
  </outline>
</glyph>
<glyph name="uni1FED" format="2">
  <advance width="577"/>
  <unicode hex="1FED"/>
  <outline>
    <contour>
      <point x="268" y="617" type="curve"/>
      <point x="357" y="617" type="line"/>
      <point x="357" y="631" type="line"/>
      <point x="353" y="669"/>
      <point x="347" y="736"/>
      <point x="347" y="777" type="curve"/>
      <point x="194" y="777" type="line"/>
      <point x="194" y="767" type="line"/>
      <point x="211" y="722"/>
      <point x="231" y="672"/>
    </contour>
    <contour>
      <point x="42" y="680" type="curve" smooth="yes"/>
      <point x="42" y="628"/>
      <point x="70" y="604"/>
      <point x="119" y="604" type="curve" smooth="yes"/>
      <point x="165" y="604"/>
      <point x="197" y="628"/>
      <point x="197" y="680" type="curve" smooth="yes"/>
      <point x="197" y="733"/>
      <point x="165" y="757"/>
      <point x="119" y="757" type="curve" smooth="yes"/>
      <point x="70" y="757"/>
      <point x="42" y="733"/>
    </contour>
    <contour>
      <point x="378" y="680" type="curve" smooth="yes"/>
      <point x="378" y="628"/>
      <point x="407" y="604"/>
      <point x="457" y="604" type="curve" smooth="yes"/>
      <point x="505" y="604"/>
      <point x="535" y="628"/>
      <point x="535" y="680" type="curve" smooth="yes"/>
      <point x="535" y="733"/>
      <point x="505" y="757"/>
      <point x="457" y="757" type="curve" smooth="yes"/>
      <point x="407" y="757"/>
      <point x="378" y="733"/>
    </contour>
  </outline>
</glyph>
<glyph name="uni1FEE" format="2">
  <advance width="577"/>
  <unicode hex="1FEE"/>
  <anchor x="289" y="553" name="_top"/>
  <outline>
    <contour>
      <point x="217" y="617" type="line"/>
      <point x="306" y="617" type="line"/>
      <point x="343" y="672"/>
      <point x="363" y="722"/>
      <point x="380" y="767" type="curve"/>
      <point x="380" y="777" type="line"/>
      <point x="227" y="777" type="line"/>
      <point x="227" y="736"/>
      <point x="221" y="669"/>
      <point x="217" y="631" type="curve"/>
    </contour>
    <contour>
      <point x="119" y="604" type="curve" smooth="yes"/>
      <point x="165" y="604"/>
      <point x="197" y="628"/>
      <point x="197" y="680" type="curve" smooth="yes"/>
      <point x="197" y="733"/>
      <point x="165" y="757"/>
      <point x="119" y="757" type="curve" smooth="yes"/>
      <point x="70" y="757"/>
      <point x="42" y="733"/>
      <point x="42" y="680" type="curve" smooth="yes"/>
      <point x="42" y="628"/>
      <point x="70" y="604"/>
    </contour>
    <contour>
      <point x="457" y="604" type="curve" smooth="yes"/>
      <point x="505" y="604"/>
      <point x="535" y="628"/>
      <point x="535" y="680" type="curve" smooth="yes"/>
      <point x="535" y="733"/>
      <point x="505" y="757"/>
      <point x="457" y="757" type="curve" smooth="yes"/>
      <point x="407" y="757"/>
      <point x="378" y="733"/>
      <point x="378" y="680" type="curve" smooth="yes"/>
      <point x="378" y="628"/>
      <point x="407" y="604"/>
    </contour>
  </outline>
</glyph>
<glyph name="uni1FEF" format="2">
  <advance width="576"/>
  <unicode hex="1FEF"/>
  <anchor x="292" y="553" name="_top"/>
  <outline>
    <contour>
      <point x="244" y="606" type="curve"/>
      <point x="360" y="606" type="line"/>
      <point x="360" y="622" type="line"/>
      <point x="349" y="667"/>
      <point x="333" y="746"/>
      <point x="327" y="795" type="curve"/>
      <point x="153" y="795" type="line"/>
      <point x="153" y="782" type="line"/>
      <point x="180" y="725"/>
      <point x="206" y="671"/>
    </contour>
  </outline>
</glyph>
<glyph name="uni1FFD" format="2">
  <advance width="576"/>
  <unicode hex="1FFD"/>
  <anchor x="324" y="553" name="_top"/>
  <outline>
    <contour>
      <point x="256" y="622" type="curve"/>
      <point x="256" y="606" type="line"/>
      <point x="372" y="606" type="line"/>
      <point x="410" y="671"/>
      <point x="436" y="725"/>
      <point x="463" y="782" type="curve"/>
      <point x="463" y="795" type="line"/>
      <point x="289" y="795" type="line"/>
      <point x="283" y="746"/>
      <point x="267" y="667"/>
    </contour>
  </outline>
</glyph>
<glyph name="uni1FFE" format="2">
  <advance width="249"/>
  <unicode hex="1FFE"/>
  <outline>
    <contour>
      <point x="213" y="596" type="curve"/>
      <point x="213" y="643" type="line"/>
      <point x="174" y="645"/>
      <point x="136" y="664"/>
      <point x="136" y="690" type="curve"/>
      <point x="187" y="691"/>
      <point x="203" y="711"/>
      <point x="203" y="745" type="curve" smooth="yes"/>
      <point x="203" y="780"/>
      <point x="175" y="799"/>
      <point x="126" y="799" type="curve" smooth="yes"/>
      <point x="74" y="799"/>
      <point x="39" y="765"/>
      <point x="39" y="720" type="curve" smooth="yes"/>
      <point x="39" y="646"/>
      <point x="96" y="598"/>
    </contour>
  </outline>
</glyph>
<glyph name="uni2012" format="2">
  <advance width="552"/>
  <unicode hex="2012"/>
  <outline>
    <contour>
      <point x="38" y="277" type="line"/>
      <point x="514" y="277" type="line"/>
      <point x="514" y="419" type="line"/>
      <point x="38" y="419" type="line"/>
    </contour>
  </outline>
</glyph>
<glyph name="minussuperior" format="2">
  <advance width="380"/>
  <unicode hex="207B"/>
  <outline>
    <contour>
      <point x="33" y="406" type="line"/>
      <point x="346" y="406" type="line"/>
      <point x="346" y="490" type="line"/>
      <point x="33" y="490" type="line"/>
    </contour>
  </outline>
</glyph>
<glyph name="parenleftsuperior" format="2">
  <advance width="243"/>
  <unicode hex="207D"/>
  <outline>
    <contour>
      <point x="33" y="497" type="curve" smooth="yes"/>
      <point x="33" y="394"/>
      <point x="53" y="289"/>
      <point x="115" y="214" type="curve"/>
      <point x="218" y="214" type="line"/>
      <point x="166" y="292"/>
      <point x="145" y="398"/>
      <point x="145" y="498" type="curve" smooth="yes"/>
      <point x="145" y="599"/>
      <point x="165" y="705"/>
      <point x="218" y="785" type="curve"/>
      <point x="115" y="785" type="line"/>
      <point x="53" y="708"/>
      <point x="33" y="601"/>
    </contour>
  </outline>
</glyph>
<glyph name="parenrightsuperior" format="2">
  <advance width="243"/>
  <unicode hex="207E"/>
  <outline>
    <contour>
      <point x="210" y="502" type="curve" smooth="yes"/>
      <point x="210" y="605"/>
      <point x="191" y="710"/>
      <point x="129" y="785" type="curve"/>
      <point x="26" y="785" type="line"/>
      <point x="78" y="707"/>
      <point x="99" y="601"/>
      <point x="99" y="501" type="curve" smooth="yes"/>
      <point x="99" y="400"/>
      <point x="78" y="294"/>
      <point x="25" y="214" type="curve"/>
      <point x="129" y="214" type="line"/>
      <point x="191" y="291"/>
      <point x="210" y="398"/>
    </contour>
  </outline>
</glyph>
<glyph name="uni20A5" format="2">
  <advance width="1000"/>
  <unicode hex="20A5"/>
  <anchor x="479" y="0" name="bottom"/>
  <anchor x="499" y="553" name="top"/>
  <anchor x="926" y="553" name="topright"/>
  <outline>
    <contour>
      <point x="738" y="666" type="line"/>
      <point x="619" y="666" type="line"/>
      <point x="258" y="-110" type="line"/>
      <point x="377" y="-110" type="line"/>
    </contour>
    <component base="m"/>
  </outline>
</glyph>
<glyph name="uni20A9" format="2">
  <advance width="757"/>
  <unicode hex="20A9"/>
  <outline>
    <contour>
      <point x="123" y="0" type="line"/>
      <point x="308" y="0" type="line"/>
      <point x="345" y="242" type="line"/>
      <point x="408" y="242" type="line"/>
      <point x="443" y="0" type="line"/>
      <point x="624" y="0" type="line"/>
      <point x="663" y="242" type="line"/>
      <point x="748" y="242" type="line"/>
      <point x="748" y="323" type="line"/>
      <point x="674" y="323" type="line"/>
      <point x="685" y="388" type="line"/>
      <point x="748" y="388" type="line"/>
      <point x="748" y="469" type="line"/>
      <point x="697" y="469" type="line"/>
      <point x="735" y="714" type="line"/>
      <point x="584" y="714" type="line"/>
      <point x="560" y="469" type="line"/>
      <point x="488" y="469" type="line"/>
      <point x="457" y="714" type="line"/>
      <point x="298" y="714" type="line"/>
      <point x="263" y="469" type="line"/>
      <point x="192" y="469" type="line"/>
      <point x="171" y="714" type="line"/>
      <point x="19" y="714" type="line"/>
      <point x="55" y="469" type="line"/>
      <point x="9" y="469" type="line"/>
      <point x="9" y="388" type="line"/>
      <point x="67" y="388" type="line"/>
      <point x="77" y="323" type="line"/>
      <point x="9" y="323" type="line"/>
      <point x="9" y="242" type="line"/>
      <point x="88" y="242" type="line"/>
    </contour>
    <contour>
      <point x="222" y="152" type="line"/>
      <point x="211" y="242" type="line"/>
      <point x="233" y="242" type="line"/>
    </contour>
    <contour>
      <point x="526" y="155" type="line"/>
      <point x="517" y="242" type="line"/>
      <point x="535" y="242" type="line"/>
    </contour>
    <contour>
      <point x="364" y="469" type="line"/>
      <point x="375" y="557" type="line"/>
      <point x="384" y="469" type="line"/>
    </contour>
    <contour>
      <point x="205" y="323" type="line"/>
      <point x="202" y="388" type="line"/>
      <point x="250" y="388" type="line"/>
      <point x="241" y="323" type="line"/>
    </contour>
    <contour>
      <point x="355" y="323" type="line"/>
      <point x="360" y="388" type="line"/>
      <point x="387" y="388" type="line"/>
      <point x="393" y="323" type="line"/>
    </contour>
    <contour>
      <point x="508" y="323" type="line"/>
      <point x="500" y="388" type="line"/>
      <point x="549" y="388" type="line"/>
      <point x="542" y="323" type="line"/>
    </contour>
  </outline>
</glyph>
<glyph name="uni214E" format="2">
  <advance width="509"/>
  <unicode hex="214E"/>
  <outline>
    <contour>
      <point x="28" y="0" type="line"/>
      <point x="443" y="0" type="line"/>
      <point x="443" y="552" type="line"/>
      <point x="246" y="552" type="line"/>
      <point x="246" y="381" type="line"/>
      <point x="51" y="381" type="line"/>
      <point x="51" y="243" type="line"/>
      <point x="246" y="243" type="line"/>
      <point x="246" y="138" type="line"/>
      <point x="28" y="138" type="line"/>
    </contour>
  </outline>
</glyph>
<glyph name="uni2C65" format="2">
  <advance width="632"/>
  <unicode hex="2C65"/>
  <anchor x="289" y="-208" name="bottom"/>
  <anchor x="299" y="760" name="top"/>
  <anchor x="572" y="553" name="topright"/>
  <outline>
    <contour>
      <point x="268" y="-208" type="line"/>
      <point x="425" y="760" type="line"/>
      <point x="341" y="760" type="line"/>
      <point x="185" y="-208" type="line"/>
    </contour>
    <component base="a"/>
  </outline>
</glyph>
<glyph name="uni2C66" format="2">
  <advance width="481"/>
  <unicode hex="2C66"/>
  <anchor x="260" y="-208" name="bottom"/>
  <anchor x="217" y="760" name="top"/>
  <anchor x="213" y="277" name="center"/>
  <anchor x="409" y="664" name="topright"/>
  <outline>
    <contour>
      <point x="297" y="-208" type="line"/>
      <point x="454" y="760" type="line"/>
      <point x="370" y="760" type="line"/>
      <point x="214" y="-208" type="line"/>
    </contour>
    <component base="t"/>
  </outline>
</glyph>
<glyph name="uni2C69" format="2">
  <advance width="721"/>
  <unicode hex="2C69"/>
  <anchor x="345" y="-221" name="bottom"/>
  <anchor x="350" y="714" name="top"/>
  <anchor x="640" y="714" name="topright"/>
  <outline>
    <contour>
      <point x="699" y="162" type="line"/>
      <point x="566" y="162" type="line"/>
      <point x="514" y="30" type="line"/>
      <point x="514" y="-221" type="line"/>
      <point x="699" y="-221" type="line"/>
    </contour>
    <component base="K"/>
  </outline>
</glyph>
<glyph name="uni2C6A" format="2">
  <advance width="670"/>
  <unicode hex="2C6A"/>
  <anchor x="321" y="-203" name="bottom"/>
  <anchor x="156" y="760" name="top"/>
  <anchor x="621" y="760" name="topright"/>
  <outline>
    <contour>
      <point x="663" y="132" type="line"/>
      <point x="551" y="132" type="line"/>
      <point x="499" y="20" type="line"/>
      <point x="499" y="-203" type="line"/>
      <point x="663" y="-203" type="line"/>
    </contour>
    <component base="k"/>
  </outline>
</glyph>
<glyph name="uni2E44" format="2">
  <advance width="410"/>
  <unicode hex="2E44"/>
  <outline>
    <contour>
      <point x="122" y="474" type="line"/>
      <point x="370" y="661" type="line"/>
      <point x="258" y="772" type="line"/>
      <point x="40" y="560" type="line"/>
    </contour>
    <contour>
      <point x="122" y="-63" type="line"/>
      <point x="370" y="124" type="line"/>
      <point x="258" y="235" type="line"/>
      <point x="40" y="23" type="line"/>
    </contour>
  </outline>
</glyph>
<glyph name="uni2E4D" format="2">
  <advance width="553"/>
  <unicode hex="2E4D"/>
  <anchor x="289" y="0" name="bottom"/>
  <anchor x="328" y="714" name="top"/>
  <outline>
    <contour>
      <point x="235" y="291" type="line"/>
      <point x="513" y="569" type="line"/>
      <point x="456" y="625" type="line"/>
      <point x="177" y="347" type="line"/>
    </contour>
    <component base="afii10020"/>
  </outline>
</glyph>
<glyph name="uniA642" format="2">
  <advance width="611"/>
  <unicode hex="A642"/>
  <outline>
    <contour>
      <point x="54" y="279" type="line"/>
      <point x="550" y="279" type="line"/>
      <point x="550" y="427" type="line"/>
      <point x="54" y="427" type="line"/>
    </contour>
    <component base="uniA640"/>
  </outline>
</glyph>
<glyph name="uniA663" format="2">
  <advance width="826"/>
  <unicode hex="A663"/>
  <anchor x="337" y="-203" name="bottom"/>
  <anchor x="337" y="553" name="top"/>
  <outline>
    <contour>
      <point x="803" y="553" type="line"/>
      <point x="392" y="553" type="line"/>
      <point x="392" y="0" type="line"/>
      <point x="583" y="0" type="line"/>
      <point x="583" y="411" type="line"/>
      <point x="803" y="411" type="line"/>
    </contour>
    <component base="afii10069"/>
  </outline>
</glyph>
<glyph name="uniA664" format="2">
  <advance width="967"/>
  <unicode hex="A664"/>
  <anchor x="362" y="0" name="bottom"/>
  <anchor x="362" y="714" name="top"/>
  <outline>
    <contour>
      <point x="941" y="714" type="line"/>
      <point x="465" y="714" type="line"/>
      <point x="465" y="0" type="line"/>
      <point x="659" y="0" type="line"/>
      <point x="659" y="558" type="line"/>
      <point x="941" y="558" type="line"/>
    </contour>
    <component base="afii10029"/>
  </outline>
</glyph>
<glyph name="uniA665" format="2">
  <advance width="854"/>
  <unicode hex="A665"/>
  <anchor x="335" y="0" name="bottom"/>
  <anchor x="335" y="553" name="top"/>
  <outline>
    <contour>
      <point x="831" y="553" type="line"/>
      <point x="420" y="553" type="line"/>
      <point x="420" y="0" type="line"/>
      <point x="611" y="0" type="line"/>
      <point x="611" y="411" type="line"/>
      <point x="831" y="411" type="line"/>
    </contour>
    <component base="afii10077"/>
  </outline>
</glyph>
<glyph name="uniA666" format="2">
  <advance width="1158"/>
  <unicode hex="A666"/>
  <anchor x="461" y="0" name="bottom"/>
  <anchor x="467" y="714" name="top"/>
  <anchor x="903" y="714" name="topright"/>
  <outline>
    <contour>
      <point x="1132" y="714" type="line"/>
      <point x="742" y="714" type="line"/>
      <point x="858" y="556" type="line"/>
      <point x="1132" y="556" type="line"/>
    </contour>
    <component base="M"/>
  </outline>
</glyph>
<glyph name="uniA667" format="2">
  <advance width="1017"/>
  <unicode hex="A667"/>
  <anchor x="408" y="0" name="bottom"/>
  <anchor x="408" y="553" name="top"/>
  <outline>
    <contour>
      <point x="978" y="553" type="line"/>
      <point x="567" y="553" type="line"/>
      <point x="758" y="411" type="line"/>
      <point x="978" y="411" type="line"/>
    </contour>
    <component base="afii10078"/>
  </outline>
</glyph>
<glyph name="uniA672" format="2">
  <unicode hex="A672"/>
  <outline>
    <contour>
      <point x="-621" y="411" type="line"/>
      <point x="-307" y="411" type="line"/>
      <point x="-307" y="499" type="line"/>
      <point x="-621" y="499" type="line"/>
    </contour>
    <contour>
      <point x="-621" y="41" type="line"/>
      <point x="-307" y="41" type="line"/>
      <point x="-307" y="129" type="line"/>
      <point x="-621" y="129" type="line"/>
    </contour>
    <contour>
      <point x="-621" y="226" type="line"/>
      <point x="-307" y="226" type="line"/>
      <point x="-307" y="314" type="line"/>
      <point x="-621" y="314" type="line"/>
    </contour>
    <contour>
      <point x="138" y="-65" type="line"/>
      <point x="138" y="-379" type="line"/>
      <point x="226" y="-379" type="line"/>
      <point x="226" y="-65" type="line"/>
    </contour>
    <contour>
      <point x="-231" y="-65" type="line"/>
      <point x="-231" y="-379" type="line"/>
      <point x="-143" y="-379" type="line"/>
      <point x="-143" y="-65" type="line"/>
    </contour>
    <contour>
      <point x="-47" y="-65" type="line"/>
      <point x="-47" y="-379" type="line"/>
      <point x="41" y="-379" type="line"/>
      <point x="41" y="-65" type="line"/>
    </contour>
    <contour>
      <point x="305" y="411" type="line"/>
      <point x="619" y="411" type="line"/>
      <point x="619" y="499" type="line"/>
      <point x="305" y="499" type="line"/>
    </contour>
    <contour>
      <point x="305" y="41" type="line"/>
      <point x="619" y="41" type="line"/>
      <point x="619" y="129" type="line"/>
      <point x="305" y="129" type="line"/>
    </contour>
    <contour>
      <point x="305" y="226" type="line"/>
      <point x="619" y="226" type="line"/>
      <point x="619" y="314" type="line"/>
      <point x="305" y="314" type="line"/>
    </contour>
    <contour>
      <point x="42" y="786" type="line"/>
      <point x="42" y="905" type="line"/>
      <point x="-49" y="905" type="line"/>
      <point x="-49" y="786" type="line"/>
      <point x="-160" y="786" type="line"/>
      <point x="-160" y="698" type="line"/>
      <point x="-49" y="698" type="line"/>
      <point x="-49" y="581" type="line"/>
      <point x="42" y="581" type="line"/>
      <point x="42" y="698" type="line"/>
      <point x="154" y="698" type="line"/>
      <point x="154" y="786" type="line"/>
    </contour>
  </outline>
</glyph>
<glyph name="uniA680" format="2">
  <advance width="814"/>
  <unicode hex="A680"/>
  <anchor x="396" y="-222" name="bottom"/>
  <anchor x="396" y="714" name="top"/>
  <outline>
    <contour>
      <point x="203" y="920" type="line"/>
      <point x="203" y="668" type="line"/>
      <point x="366" y="668" type="line"/>
      <point x="366" y="920" type="line"/>
    </contour>
    <component base="afii10021"/>
  </outline>
</glyph>
<glyph name="uniA681" format="2">
  <advance width="673"/>
  <unicode hex="A681"/>
  <anchor x="337" y="-203" name="bottom"/>
  <anchor x="337" y="553" name="top"/>
  <outline>
    <contour>
      <point x="158" y="739" type="line"/>
      <point x="158" y="487" type="line"/>
      <point x="321" y="487" type="line"/>
      <point x="321" y="739" type="line"/>
    </contour>
    <component base="afii10069"/>
  </outline>
</glyph>
<glyph name="uniA685" format="2">
  <advance width="1226"/>
  <unicode hex="A685"/>
  <anchor x="222" y="0" name="bottom_1"/>
  <anchor x="887" y="0" name="bottom_2"/>
  <anchor x="230" y="553" name="top_1"/>
  <anchor x="902" y="553" name="top_2"/>
  <outline>
    <contour>
      <point x="153" y="349" type="line"/>
      <point x="153" y="225" type="line"/>
      <point x="704" y="225" type="line"/>
      <point x="704" y="349" type="line"/>
    </contour>
    <component base="afii10073"/>
    <component base="afii10076" xOffset="554"/>
  </outline>
</glyph>
<glyph name="uniA68F" format="2">
  <advance width="629"/>
  <unicode hex="A68F"/>
  <outline>
    <contour>
      <point x="181" y="-240" type="curve" smooth="yes"/>
      <point x="392" y="-239" type="line" smooth="yes"/>
      <point x="577" y="-238"/>
      <point x="620" y="-154"/>
      <point x="620" y="-45" type="curve" smooth="yes"/>
      <point x="620" y="18"/>
      <point x="598" y="66"/>
      <point x="554" y="97" type="curve"/>
      <point x="554" y="553" type="line"/>
      <point x="353" y="553" type="line"/>
      <point x="353" y="142" type="line"/>
      <point x="258" y="142" type="line"/>
      <point x="258" y="553" type="line"/>
      <point x="56" y="553" type="line"/>
      <point x="56" y="0" type="line"/>
      <point x="388" y="0" type="line" smooth="yes"/>
      <point x="452" y="0"/>
      <point x="478" y="-32"/>
      <point x="478" y="-81" type="curve" smooth="yes"/>
      <point x="478" y="-131"/>
      <point x="455" y="-162"/>
      <point x="352" y="-162" type="curve" smooth="yes"/>
      <point x="211" y="-162" type="line" smooth="yes"/>
      <point x="187" y="-162"/>
      <point x="175" y="-152"/>
      <point x="175" y="-143" type="curve" smooth="yes"/>
      <point x="175" y="-127"/>
      <point x="182" y="-114"/>
      <point x="207" y="-114" type="curve" smooth="yes"/>
      <point x="388" y="-114" type="line"/>
      <point x="388" y="-47" type="line"/>
      <point x="168" y="-47" type="line" smooth="yes"/>
      <point x="112" y="-47"/>
      <point x="76" y="-84"/>
      <point x="76" y="-142" type="curve" smooth="yes"/>
      <point x="76" y="-199"/>
      <point x="107" y="-240"/>
    </contour>
  </outline>
</glyph>
<glyph name="uniA69E" format="2">
  <unicode hex="A69E"/>
  <outline>
    <contour>
      <point x="62" y="758" type="line"/>
      <point x="-63" y="758" type="line"/>
      <point x="-63" y="626" type="line"/>
      <point x="-206" y="617"/>
      <point x="-259" y="546"/>
      <point x="-259" y="448" type="curve" smooth="yes"/>
      <point x="-259" y="356"/>
      <point x="-194" y="285"/>
      <point x="-60" y="272" type="curve"/>
      <point x="-60" y="118" type="line"/>
      <point x="62" y="118" type="line"/>
      <point x="62" y="272" type="line"/>
      <point x="201" y="283"/>
      <point x="259" y="355"/>
      <point x="259" y="448" type="curve" smooth="yes"/>
      <point x="259" y="542"/>
      <point x="197" y="614"/>
      <point x="62" y="626" type="curve"/>
    </contour>
    <contour>
      <point x="-63" y="535" type="curve"/>
      <point x="-63" y="362" type="line"/>
      <point x="-93" y="364"/>
      <point x="-120" y="400"/>
      <point x="-120" y="448" type="curve" smooth="yes"/>
      <point x="-120" y="496"/>
      <point x="-88" y="533"/>
    </contour>
    <contour>
      <point x="62" y="535" type="line"/>
      <point x="90" y="533"/>
      <point x="119" y="496"/>
      <point x="119" y="448" type="curve" smooth="yes"/>
      <point x="119" y="399"/>
      <point x="92" y="364"/>
      <point x="62" y="362" type="curve"/>
    </contour>
  </outline>
</glyph>
<glyph name="uniA730" format="2">
  <advance width="419"/>
  <unicode hex="A730"/>
  <outline>
    <contour>
      <point x="221" y="0" type="line"/>
      <point x="221" y="208" type="line"/>
      <point x="368" y="208" type="line"/>
      <point x="368" y="328" type="line"/>
      <point x="221" y="328" type="line"/>
      <point x="221" y="433" type="line"/>
      <point x="381" y="433" type="line"/>
      <point x="381" y="553" type="line"/>
      <point x="68" y="553" type="line"/>
      <point x="68" y="0" type="line"/>
    </contour>
  </outline>
</glyph>
<glyph name="uniA731" format="2">
  <advance width="451"/>
  <unicode hex="A731"/>
  <outline>
    <contour>
      <point x="424" y="167" type="curve" smooth="yes"/>
      <point x="424" y="254"/>
      <point x="381" y="294"/>
      <point x="306" y="330" type="curve" smooth="yes"/>
      <point x="223" y="369"/>
      <point x="202" y="380"/>
      <point x="202" y="407" type="curve" smooth="yes"/>
      <point x="202" y="427"/>
      <point x="214" y="443"/>
      <point x="248" y="443" type="curve" smooth="yes"/>
      <point x="284" y="443"/>
      <point x="335" y="429"/>
      <point x="377" y="407" type="curve"/>
      <point x="425" y="523" type="line"/>
      <point x="385" y="543"/>
      <point x="330" y="563"/>
      <point x="255" y="563" type="curve" smooth="yes"/>
      <point x="137" y="563"/>
      <point x="46" y="508"/>
      <point x="46" y="400" type="curve" smooth="yes"/>
      <point x="46" y="304"/>
      <point x="79" y="266"/>
      <point x="174" y="227" type="curve" smooth="yes"/>
      <point x="249" y="196"/>
      <point x="266" y="183"/>
      <point x="266" y="154" type="curve" smooth="yes"/>
      <point x="266" y="130"/>
      <point x="247" y="113"/>
      <point x="213" y="113" type="curve" smooth="yes"/>
      <point x="168" y="113"/>
      <point x="103" y="129"/>
      <point x="43" y="159" type="curve"/>
      <point x="43" y="25" type="line"/>
      <point x="97" y="0"/>
      <point x="128" y="-10"/>
      <point x="211" y="-10" type="curve" smooth="yes"/>
      <point x="366" y="-10"/>
      <point x="424" y="76"/>
    </contour>
  </outline>
</glyph>
<glyph name="uniA741" format="2">
  <advance width="640"/>
  <unicode hex="A741"/>
  <anchor x="330" y="0" name="bottom"/>
  <anchor x="163" y="760" name="top"/>
  <anchor x="621" y="760" name="topright"/>
  <outline>
    <contour>
      <point x="381" y="688" type="line"/>
      <point x="0" y="688" type="line"/>
      <point x="0" y="570" type="line"/>
      <point x="381" y="570" type="line"/>
    </contour>
    <component base="k"/>
  </outline>
</glyph>
<glyph name="uniA742" format="2">
  <advance width="658"/>
  <unicode hex="A742"/>
  <anchor x="360" y="0" name="bottom"/>
  <anchor x="364" y="714" name="top"/>
  <anchor x="640" y="714" name="topright"/>
  <outline>
    <contour>
      <point x="300" y="161" type="line"/>
      <point x="364" y="50" type="line"/>
      <point x="661" y="215" type="line"/>
      <point x="596" y="326" type="line"/>
    </contour>
    <component base="K"/>
  </outline>
</glyph>
<glyph name="uniA743" format="2">
  <advance width="640"/>
  <unicode hex="A743"/>
  <anchor x="330" y="0" name="bottom"/>
  <anchor x="163" y="760" name="top"/>
  <anchor x="621" y="760" name="topright"/>
  <outline>
    <contour>
      <point x="284" y="104" type="line"/>
      <point x="359" y="9" type="line"/>
      <point x="621" y="213" type="line"/>
      <point x="546" y="308" type="line"/>
    </contour>
    <component base="k"/>
  </outline>
</glyph>
<glyph name="uniA748" format="2">
  <advance width="556"/>
  <unicode hex="A748"/>
  <anchor x="291" y="0" name="bottom"/>
  <anchor x="278" y="357" name="center"/>
  <anchor x="163" y="714" name="top"/>
  <anchor x="332" y="714" name="topright"/>
  <outline>
    <contour>
      <point x="10" y="487" type="line"/>
      <point x="364" y="487" type="line"/>
      <point x="364" y="648" type="line"/>
      <point x="10" y="648" type="line"/>
    </contour>
    <component base="L"/>
  </outline>
</glyph>
<glyph name="uniA749" format="2">
  <advance width="314"/>
  <unicode hex="A749"/>
  <anchor x="157" y="0" name="bottom"/>
  <anchor x="157" y="277" name="center"/>
  <anchor x="157" y="760" name="top"/>
  <anchor x="277" y="760" name="topright"/>
  <outline>
    <contour>
      <point x="328" y="681" type="line"/>
      <point x="-17" y="681" type="line"/>
      <point x="-17" y="563" type="line"/>
      <point x="328" y="563" type="line"/>
    </contour>
    <component base="l"/>
  </outline>
</glyph>
<glyph name="uniA74B" format="2">
  <advance width="608"/>
  <unicode hex="A74B"/>
  <anchor x="322" y="0" name="bottom"/>
  <anchor x="325" y="277" name="center"/>
  <anchor x="325" y="553" name="top"/>
  <anchor x="610" y="553" name="topright"/>
  <outline>
    <contour>
      <point x="0" y="215" type="line"/>
      <point x="654" y="215" type="line"/>
      <point x="654" y="339" type="line"/>
      <point x="0" y="339" type="line"/>
    </contour>
    <component base="o" xOffset="20"/>
  </outline>
</glyph>
<glyph name="uniA752" format="2">
  <advance width="748"/>
  <unicode hex="A752"/>
  <anchor x="450" y="0" name="bottom"/>
  <anchor x="457" y="714" name="top"/>
  <anchor x="729" y="714" name="topright"/>
  <outline>
    <contour>
      <point x="358" y="238" type="line"/>
      <point x="358" y="394" type="line"/>
      <point x="208" y="394" type="line" smooth="yes"/>
      <point x="52" y="394"/>
      <point x="3" y="309"/>
      <point x="3" y="208" type="curve"/>
      <point x="3" y="179"/>
      <point x="11" y="158"/>
      <point x="16" y="149" type="curve"/>
      <point x="166" y="149" type="line"/>
      <point x="162" y="159"/>
      <point x="156" y="171"/>
      <point x="156" y="194" type="curve"/>
      <point x="156" y="217"/>
      <point x="171" y="238"/>
      <point x="202" y="238" type="curve" smooth="yes"/>
    </contour>
    <component base="P" xOffset="151"/>
  </outline>
</glyph>
<glyph name="uniA756" format="2">
  <advance width="749"/>
  <unicode hex="A756"/>
  <anchor x="375" y="-170" name="bottom"/>
  <anchor x="375" y="725" name="top"/>
  <anchor x="731" y="725" name="topright"/>
  <outline>
    <contour>
      <point x="361" y="-86" type="line"/>
      <point x="405" y="-193" type="line"/>
      <point x="786" y="-42" type="line"/>
      <point x="741" y="65" type="line"/>
    </contour>
    <component base="Q"/>
  </outline>
</glyph>
<glyph name="uniA757" format="2">
  <advance width="610"/>
  <unicode hex="A757"/>
  <anchor x="453" y="-240" name="bottom"/>
  <anchor x="305" y="553" name="top"/>
  <anchor x="583" y="553" name="topright"/>
  <outline>
    <contour>
      <point x="232" y="-174" type="line"/>
      <point x="624" y="-174" type="line"/>
      <point x="624" y="-53" type="line"/>
      <point x="232" y="-53" type="line"/>
    </contour>
    <component base="q"/>
  </outline>
</glyph>
<glyph name="uniA75C" format="2">
  <advance width="737"/>
  <unicode hex="A75C"/>
  <outline>
    <contour>
      <point x="720" y="138" type="line"/>
      <point x="720" y="285" type="line"/>
      <point x="304" y="285" type="line"/>
      <point x="304" y="291" type="line"/>
      <point x="327" y="329" type="line" smooth="yes"/>
      <point x="387" y="427"/>
      <point x="444" y="471"/>
      <point x="444" y="562" type="curve" smooth="yes"/>
      <point x="444" y="670"/>
      <point x="379" y="725"/>
      <point x="265" y="725" type="curve" smooth="yes"/>
      <point x="140" y="725"/>
      <point x="90" y="676"/>
      <point x="45" y="635" type="curve"/>
      <point x="157" y="511" type="line"/>
      <point x="181" y="543"/>
      <point x="203" y="564"/>
      <point x="220" y="564" type="curve" smooth="yes"/>
      <point x="235" y="564"/>
      <point x="243" y="550"/>
      <point x="243" y="531" type="curve" smooth="yes"/>
      <point x="243" y="498"/>
      <point x="238" y="473"/>
      <point x="165" y="379" type="curve" smooth="yes"/>
      <point x="58" y="242" type="line"/>
      <point x="59" y="138" type="line"/>
    </contour>
    <contour>
      <point x="676" y="0" type="line"/>
      <point x="676" y="429" type="line"/>
      <point x="473" y="429" type="line"/>
      <point x="473" y="0" type="line"/>
    </contour>
  </outline>
</glyph>
<glyph name="uniA75E" format="2">
  <advance width="694"/>
  <unicode hex="A75E"/>
  <anchor x="333" y="0" name="bottom"/>
  <anchor x="337" y="714" name="top"/>
  <anchor x="657" y="714" name="topright"/>
  <outline>
    <contour>
      <point x="320" y="723" type="line"/>
      <point x="103" y="-9" type="line"/>
      <point x="183" y="-9" type="line"/>
      <point x="403" y="723" type="line"/>
    </contour>
    <component base="V"/>
  </outline>
</glyph>
<glyph name="uniA75F" format="2">
  <advance width="597"/>
  <unicode hex="A75F"/>
  <anchor x="301" y="0" name="bottom"/>
  <anchor x="298" y="553" name="top"/>
  <anchor x="578" y="553" name="topright"/>
  <outline>
    <contour>
      <point x="291" y="639" type="line"/>
      <point x="74" y="-93" type="line"/>
      <point x="154" y="-93" type="line"/>
      <point x="374" y="639" type="line"/>
    </contour>
    <component base="v"/>
  </outline>
</glyph>
<glyph name="uniA764" format="2">
  <advance width="592"/>
  <unicode hex="A764"/>
  <outline>
    <contour>
      <point x="329" y="467" type="curve" smooth="yes"/>
      <point x="271" y="467" type="line"/>
      <point x="271" y="531" type="line"/>
      <point x="377" y="531" type="line"/>
      <point x="377" y="654" type="line"/>
      <point x="271" y="654" type="line"/>
      <point x="271" y="714" type="line"/>
      <point x="66" y="714" type="line"/>
      <point x="66" y="654" type="line"/>
      <point x="-5" y="654" type="line"/>
      <point x="-5" y="531" type="line"/>
      <point x="66" y="531" type="line"/>
      <point x="66" y="0" type="line"/>
      <point x="271" y="0" type="line"/>
      <point x="271" y="43" type="line"/>
      <point x="320" y="43" type="line" smooth="yes"/>
      <point x="534" y="43"/>
      <point x="569" y="167"/>
      <point x="569" y="260" type="curve" smooth="yes"/>
      <point x="569" y="384"/>
      <point x="498" y="467"/>
    </contour>
    <contour>
      <point x="286" y="185" type="curve" smooth="yes"/>
      <point x="271" y="185" type="line"/>
      <point x="271" y="325" type="line"/>
      <point x="293" y="325" type="line" smooth="yes"/>
      <point x="342" y="325"/>
      <point x="364" y="308"/>
      <point x="364" y="261" type="curve" smooth="yes"/>
      <point x="364" y="214"/>
      <point x="342" y="185"/>
    </contour>
  </outline>
</glyph>
<glyph name="uniA765" format="2">
  <advance width="610"/>
  <unicode hex="A765"/>
  <anchor x="306" y="-240" name="bottom"/>
  <anchor x="306" y="760" name="top"/>
  <outline>
    <contour>
      <point x="391" y="708" type="line"/>
      <point x="3" y="708" type="line"/>
      <point x="3" y="586" type="line"/>
      <point x="391" y="586" type="line"/>
    </contour>
    <component base="thorn"/>
  </outline>
</glyph>
<glyph name="uniA768" format="2">
  <advance width="850"/>
  <unicode hex="A768"/>
  <outline>
    <contour>
      <point x="323" y="-96" type="line"/>
      <point x="323" y="-11" type="line"/>
      <point x="846" y="714" type="line"/>
      <point x="611" y="714" type="line"/>
      <point x="451" y="471" type="line" smooth="yes"/>
      <point x="402" y="397"/>
      <point x="353" y="319"/>
      <point x="309" y="225" type="curve"/>
      <point x="299" y="228" type="line"/>
      <point x="316" y="282"/>
      <point x="323" y="352"/>
      <point x="323" y="412" type="curve" smooth="yes"/>
      <point x="323" y="571" type="line"/>
      <point x="407" y="604" type="line"/>
      <point x="407" y="714" type="line"/>
      <point x="33" y="714" type="line"/>
      <point x="33" y="604" type="line"/>
      <point x="118" y="571" type="line"/>
      <point x="118" y="-96" type="line"/>
      <point x="33" y="-130" type="line"/>
      <point x="33" y="-240" type="line"/>
      <point x="407" y="-240" type="line"/>
      <point x="407" y="-130" type="line"/>
    </contour>
  </outline>
</glyph>
<glyph name="uniA771" format="2">
  <advance width="853"/>
  <unicode hex="A771"/>
  <anchor x="302" y="0" name="bottom"/>
  <anchor x="305" y="277" name="center"/>
  <anchor x="293" y="760" name="top"/>
  <anchor x="577" y="760" name="topright"/>
  <outline>
    <contour>
      <point x="515" y="0" type="line"/>
      <point x="848" y="0" type="line"/>
      <point x="848" y="144" type="line"/>
      <point x="515" y="144" type="line"/>
    </contour>
    <contour>
      <point x="665" y="298" type="line"/>
      <point x="523" y="-157" type="line"/>
      <point x="640" y="-157" type="line"/>
      <point x="781" y="298" type="line"/>
    </contour>
    <component base="d"/>
  </outline>
</glyph>
<glyph name="uniA773" format="2">
  <advance width="1224"/>
  <unicode hex="A773"/>
  <anchor x="479" y="0" name="bottom"/>
  <anchor x="499" y="553" name="top"/>
  <anchor x="926" y="553" name="topright"/>
  <outline>
    <contour>
      <point x="886" y="0" type="line"/>
      <point x="1219" y="0" type="line"/>
      <point x="1219" y="144" type="line"/>
      <point x="886" y="144" type="line"/>
    </contour>
    <contour>
      <point x="1035" y="298" type="line"/>
      <point x="893" y="-157" type="line"/>
      <point x="1010" y="-157" type="line"/>
      <point x="1151" y="298" type="line"/>
    </contour>
    <component base="m"/>
  </outline>
</glyph>
<glyph name="uniA774" format="2">
  <advance width="893"/>
  <unicode hex="A774"/>
  <anchor x="318" y="0" name="bottom"/>
  <anchor x="318" y="553" name="top"/>
  <anchor x="603" y="553" name="topright"/>
  <outline>
    <contour>
      <point x="555" y="0" type="line"/>
      <point x="888" y="0" type="line"/>
      <point x="888" y="144" type="line"/>
      <point x="555" y="144" type="line"/>
    </contour>
    <contour>
      <point x="705" y="298" type="line"/>
      <point x="563" y="-157" type="line"/>
      <point x="680" y="-157" type="line"/>
      <point x="821" y="298" type="line"/>
    </contour>
    <component base="n"/>
  </outline>
</glyph>
<glyph name="uniA776" format="2">
  <advance width="831"/>
  <unicode hex="A776"/>
  <anchor x="314" y="0" name="bottom"/>
  <anchor x="314" y="553" name="top"/>
  <outline>
    <contour>
      <point x="493" y="0" type="line"/>
      <point x="826" y="0" type="line"/>
      <point x="826" y="144" type="line"/>
      <point x="493" y="144" type="line"/>
    </contour>
    <contour>
      <point x="642" y="298" type="line"/>
      <point x="500" y="-157" type="line"/>
      <point x="617" y="-157" type="line"/>
      <point x="758" y="298" type="line"/>
    </contour>
    <component base="uni0280"/>
  </outline>
</glyph>
<glyph name="uniA790" format="2">
  <advance width="925"/>
  <unicode hex="A790"/>
  <anchor x="398" y="0" name="bottom"/>
  <anchor x="398" y="714" name="top"/>
  <anchor x="777" y="714" name="topright"/>
  <outline>
    <contour>
      <point x="690" y="0" type="line"/>
      <point x="690" y="-222" type="line"/>
      <point x="878" y="-222" type="line"/>
      <point x="878" y="158" type="line"/>
      <point x="728" y="158" type="line"/>
    </contour>
    <component base="N"/>
  </outline>
</glyph>
<glyph name="uniA791" format="2">
  <advance width="689"/>
  <unicode hex="A791"/>
  <anchor x="318" y="0" name="bottom"/>
  <anchor x="318" y="553" name="top"/>
  <anchor x="603" y="553" name="topright"/>
  <outline>
    <contour>
      <point x="501" y="0" type="line"/>
      <point x="501" y="-203" type="line"/>
      <point x="666" y="-203" type="line"/>
      <point x="666" y="132" type="line"/>
      <point x="583" y="132" type="line"/>
    </contour>
    <component base="n"/>
  </outline>
</glyph>
<glyph name="uniA793" format="2">
  <advance width="520"/>
  <unicode hex="A793"/>
  <anchor x="337" y="0" name="bottom"/>
  <anchor x="315" y="553" name="top"/>
  <anchor x="521" y="553" name="topright"/>
  <outline>
    <contour>
      <point x="0" y="220" type="line"/>
      <point x="388" y="220" type="line"/>
      <point x="388" y="339" type="line"/>
      <point x="0" y="339" type="line"/>
    </contour>
    <component base="c" xOffset="22"/>
  </outline>
</glyph>
<glyph name="uniA799" format="2">
  <advance width="402"/>
  <unicode hex="A799"/>
  <anchor x="186" y="0" name="bottom"/>
  <anchor x="263" y="765" name="top"/>
  <anchor x="415" y="765" name="topright"/>
  <outline>
    <contour>
      <point x="401" y="336" type="line"/>
      <point x="23" y="336" type="line"/>
      <point x="23" y="217" type="line"/>
      <point x="401" y="217" type="line"/>
    </contour>
    <component base="f"/>
  </outline>
</glyph>
<glyph name="uniA7A3" format="2">
  <advance width="659"/>
  <unicode hex="A7A3"/>
  <anchor x="330" y="0" name="bottom"/>
  <anchor x="163" y="760" name="top"/>
  <anchor x="621" y="760" name="topright"/>
  <outline>
    <contour>
      <point x="3" y="272" type="line"/>
      <point x="3" y="165" type="line"/>
      <point x="659" y="260" type="line"/>
      <point x="659" y="367" type="line"/>
    </contour>
    <component base="k"/>
  </outline>
</glyph>
<glyph name="uniA7A5" format="2">
  <advance width="670"/>
  <unicode hex="A7A5"/>
  <anchor x="318" y="0" name="bottom"/>
  <anchor x="318" y="553" name="top"/>
  <anchor x="603" y="553" name="topright"/>
  <outline>
    <contour>
      <point x="3" y="266" type="line"/>
      <point x="3" y="158" type="line"/>
      <point x="670" y="251" type="line"/>
      <point x="670" y="358" type="line"/>
    </contour>
    <component base="n"/>
  </outline>
</glyph>
<glyph name="uniA7A7" format="2">
  <advance width="469"/>
  <unicode hex="A7A7"/>
  <anchor x="160" y="0" name="bottom"/>
  <anchor x="255" y="553" name="top"/>
  <anchor x="430" y="553" name="topright"/>
  <outline>
    <contour>
      <point x="2" y="265" type="line"/>
      <point x="2" y="158" type="line"/>
      <point x="439" y="218" type="line"/>
      <point x="439" y="325" type="line"/>
    </contour>
    <component base="r"/>
  </outline>
</glyph>
<glyph name="uniA7AE" format="2">
  <advance width="603"/>
  <unicode hex="A7AE"/>
  <anchor x="303" y="0" name="bottom"/>
  <anchor x="303" y="714" name="top"/>
  <outline>
    <contour>
      <point x="576" y="714" type="line"/>
      <point x="27" y="714" type="line"/>
      <point x="27" y="604" type="line"/>
      <point x="199" y="567" type="line"/>
      <point x="199" y="147" type="line"/>
      <point x="27" y="110" type="line"/>
      <point x="27" y="0" type="line"/>
      <point x="576" y="0" type="line"/>
      <point x="576" y="110" type="line"/>
      <point x="403" y="147" type="line"/>
      <point x="403" y="567" type="line"/>
      <point x="576" y="604" type="line"/>
    </contour>
  </outline>
</glyph>
<glyph name="uniA7B2" format="2">
  <advance width="350"/>
  <unicode hex="A7B2"/>
  <outline>
    <contour>
      <point x="285" y="-11" type="curve" smooth="yes"/>
      <point x="285" y="714" type="line"/>
      <point x="79" y="714" type="line"/>
      <point x="79" y="-42" type="line" smooth="yes"/>
      <point x="79" y="-105"/>
      <point x="57" y="-116"/>
      <point x="48" y="-116" type="curve" smooth="yes"/>
      <point x="40" y="-116"/>
      <point x="22" y="-111"/>
      <point x="22" y="-89" type="curve" smooth="yes"/>
      <point x="22" y="-69"/>
      <point x="35" y="-56"/>
      <point x="54" y="-56" type="curve" smooth="yes"/>
      <point x="115" y="-56"/>
      <point x="213" y="-148"/>
      <point x="250" y="-237" type="curve"/>
      <point x="338" y="-203" type="line"/>
      <point x="274" y="-69"/>
      <point x="148" y="36"/>
      <point x="33" y="36" type="curve" smooth="yes"/>
      <point x="-32" y="36"/>
      <point x="-97" y="0"/>
      <point x="-97" y="-90" type="curve" smooth="yes"/>
      <point x="-97" y="-179"/>
      <point x="-20" y="-224"/>
      <point x="80" y="-224" type="curve" smooth="yes"/>
      <point x="213" y="-224"/>
      <point x="285" y="-127"/>
    </contour>
  </outline>
</glyph>
<glyph name="uniA7B8" format="2">
  <advance width="712"/>
  <unicode hex="A7B8"/>
  <anchor x="355" y="0" name="bottom"/>
  <anchor x="357" y="714" name="top"/>
  <anchor x="693" y="714" name="topright"/>
  <outline>
    <contour>
      <point x="117" y="-59" type="line"/>
      <point x="698" y="691" type="line"/>
      <point x="611" y="756" type="line"/>
      <point x="27" y="8" type="line"/>
    </contour>
    <component base="U"/>
  </outline>
</glyph>
<glyph name="uniA7B9" format="2">
  <advance width="637"/>
  <unicode hex="A7B9"/>
  <anchor x="315" y="0" name="bottom"/>
  <anchor x="318" y="553" name="top"/>
  <anchor x="615" y="553" name="topright"/>
  <outline>
    <contour>
      <point x="84" y="-56" type="line"/>
      <point x="646" y="499" type="line"/>
      <point x="580" y="571" type="line"/>
      <point x="17" y="14" type="line"/>
    </contour>
    <component base="u"/>
  </outline>
</glyph>
<glyph name="uniA7C8" format="2">
  <advance width="610"/>
  <unicode hex="A7C8"/>
  <anchor x="302" y="0" name="bottom"/>
  <anchor x="305" y="277" name="center"/>
  <anchor x="293" y="760" name="top"/>
  <anchor x="577" y="760" name="topright"/>
  <outline>
    <contour>
      <point x="174" y="233" type="line"/>
      <point x="440" y="233" type="line"/>
      <point x="440" y="318" type="line"/>
      <point x="174" y="318" type="line"/>
    </contour>
    <component base="d"/>
  </outline>
</glyph>
<glyph name="uniA7C9" format="2">
  <advance width="556"/>
  <unicode hex="A7C9"/>
  <anchor x="282" y="0" name="bottom"/>
  <anchor x="294" y="714" name="top"/>
  <anchor x="537" y="714" name="topright"/>
  <outline>
    <contour>
      <point x="17" y="325" type="line"/>
      <point x="556" y="325" type="line"/>
      <point x="556" y="410" type="line"/>
      <point x="17" y="410" type="line"/>
    </contour>
    <component base="S"/>
  </outline>
</glyph>
<glyph name="uniA7FA" format="2">
  <advance width="827"/>
  <unicode hex="A7FA"/>
  <anchor x="413" y="0" name="bottom"/>
  <anchor x="413" y="553" name="top"/>
  <outline>
    <contour>
      <point x="761" y="0" type="line"/>
      <point x="761" y="553" type="line"/>
      <point x="602" y="553" type="line"/>
      <point x="602" y="122" type="line"/>
      <point x="490" y="122" type="line"/>
      <point x="490" y="553" type="line"/>
      <point x="336" y="553" type="line"/>
      <point x="336" y="122" type="line"/>
      <point x="225" y="122" type="line"/>
      <point x="225" y="553" type="line"/>
      <point x="66" y="553" type="line"/>
      <point x="66" y="0" type="line"/>
    </contour>
  </outline>
</glyph>
<glyph name="uniAB41" format="2">
  <advance width="921"/>
  <unicode hex="AB41"/>
  <anchor x="460" y="553" name="bottom"/>
  <anchor x="460" y="0" name="top"/>
  <outline>
    <contour>
      <point x="490" y="-50" type="line"/>
      <point x="789" y="553" type="line"/>
      <point x="709" y="595" type="line"/>
      <point x="409" y="-10" type="line"/>
    </contour>
    <component base="oe" xScale="-1" yScale="-1" xOffset="921" yOffset="553"/>
  </outline>
</glyph>
<glyph name="uniAB42" format="2">
  <advance width="922"/>
  <unicode hex="AB42"/>
  <anchor x="460" y="553" name="bottom"/>
  <anchor x="460" y="0" name="top"/>
  <outline>
    <contour>
      <point x="433" y="335" type="line"/>
      <point x="433" y="215" type="line"/>
      <point x="778" y="215" type="line"/>
      <point x="778" y="335" type="line"/>
    </contour>
    <component base="oe" xScale="-1" yScale="-1" xOffset="921" yOffset="553"/>
  </outline>
</glyph>
<glyph name="uniAB4F" format="2">
  <advance width="637"/>
  <unicode hex="AB4F"/>
  <outline>
    <contour>
      <point x="2" y="350" type="line"/>
      <point x="2" y="228" type="line"/>
      <point x="683" y="228" type="line"/>
      <point x="683" y="350" type="line"/>
    </contour>
    <component base="uniAB4E"/>
  </outline>
</glyph>
<glyph name="uniAB60" format="2">
  <advance width="865"/>
  <unicode hex="AB60"/>
  <outline>
    <contour>
      <point x="375" y="0" type="line"/>
      <point x="597" y="0" type="line" smooth="yes"/>
      <point x="784" y="0"/>
      <point x="837" y="73"/>
      <point x="837" y="184" type="curve" smooth="yes"/>
      <point x="837" y="292"/>
      <point x="799" y="354"/>
      <point x="632" y="354" type="curve" smooth="yes"/>
      <point x="577" y="354" type="line"/>
      <point x="577" y="553" type="line"/>
      <point x="375" y="553" type="line"/>
    </contour>
    <contour>
      <point x="56" y="0" type="line"/>
      <point x="258" y="0" type="line"/>
      <point x="258" y="553" type="line"/>
      <point x="56" y="553" type="line"/>
    </contour>
    <contour>
      <point x="577" y="125" type="line"/>
      <point x="577" y="229" type="line"/>
      <point x="586" y="229" type="line" smooth="yes"/>
      <point x="633" y="229"/>
      <point x="635" y="209"/>
      <point x="635" y="175" type="curve" smooth="yes"/>
      <point x="635" y="143"/>
      <point x="626" y="125"/>
      <point x="588" y="125" type="curve" smooth="yes"/>
    </contour>
  </outline>
</glyph>
<glyph name="uniAB61" format="2">
  <advance width="879"/>
  <unicode hex="AB61"/>
  <anchor x="617" y="0" name="bottom"/>
  <anchor x="581" y="553" name="top"/>
  <anchor x="860" y="553" name="topright"/>
  <outline>
    <contour>
      <point x="390" y="212" type="line"/>
      <point x="391" y="354" type="line"/>
      <point x="257" y="354" type="line"/>
      <point x="257" y="553" type="line"/>
      <point x="66" y="553" type="line"/>
      <point x="66" y="0" type="line"/>
      <point x="257" y="0" type="line"/>
      <point x="257" y="212" type="line"/>
    </contour>
    <component base="e" xOffset="284"/>
  </outline>
</glyph>
<glyph name="uniFE20" format="2">
  <unicode hex="FE20"/>
  <outline>
    <contour>
      <point x="-374" y="587" type="curve"/>
      <point x="-252" y="587" type="line"/>
      <point x="-195" y="643"/>
      <point x="-120" y="675"/>
      <point x="0" y="675" type="curve"/>
      <point x="5" y="675" type="line"/>
      <point x="5" y="791" type="line"/>
      <point x="0" y="791" type="line" smooth="yes"/>
      <point x="-182" y="791"/>
      <point x="-312" y="730"/>
    </contour>
  </outline>
</glyph>
<glyph name="uniFE21" format="2">
  <unicode hex="FE21"/>
  <outline>
    <contour>
      <point x="0" y="791" type="curve"/>
      <point x="-5" y="791" type="line"/>
      <point x="-5" y="675" type="line"/>
      <point x="0" y="675" type="line" smooth="yes"/>
      <point x="147" y="675"/>
      <point x="217" y="630"/>
      <point x="261" y="587" type="curve"/>
      <point x="383" y="587" type="line"/>
      <point x="347" y="713"/>
      <point x="230" y="791"/>
    </contour>
  </outline>
</glyph>
<glyph name="uniFE22" format="2">
  <unicode hex="FE22"/>
  <outline>
    <contour>
      <point x="0" y="630" type="curve"/>
      <point x="0" y="754" type="line"/>
      <point x="-63" y="766"/>
      <point x="-134" y="776"/>
      <point x="-217" y="776" type="curve"/>
      <point x="-298" y="776"/>
      <point x="-376" y="720"/>
      <point x="-382" y="607" type="curve"/>
      <point x="-291" y="607" type="line"/>
      <point x="-276" y="641"/>
      <point x="-241" y="656"/>
      <point x="-227" y="656" type="curve"/>
      <point x="-150" y="656"/>
      <point x="-81" y="645"/>
    </contour>
  </outline>
</glyph>
<glyph name="uniFE23" format="2">
  <unicode hex="FE23"/>
  <outline>
    <contour>
      <point x="0" y="754" type="curve"/>
      <point x="0" y="630" type="line"/>
      <point x="65" y="618"/>
      <point x="139" y="608"/>
      <point x="215" y="608" type="curve"/>
      <point x="300" y="608"/>
      <point x="377" y="664"/>
      <point x="383" y="776" type="curve"/>
      <point x="293" y="776" type="line"/>
      <point x="276" y="742"/>
      <point x="243" y="728"/>
      <point x="226" y="728" type="curve"/>
      <point x="144" y="728"/>
      <point x="78" y="739"/>
    </contour>
  </outline>
</glyph>
<glyph name="uniFE2F" format="2">
  <unicode hex="FE2F"/>
  <outline>
    <contour>
      <point x="-164" y="601" type="line"/>
      <point x="70" y="601" type="line" smooth="yes"/>
      <point x="151" y="601"/>
      <point x="162" y="644"/>
      <point x="162" y="685" type="curve" smooth="yes"/>
      <point x="162" y="730"/>
      <point x="140" y="758"/>
      <point x="92" y="758" type="curve" smooth="yes"/>
      <point x="58" y="758"/>
      <point x="29" y="742"/>
      <point x="26" y="716" type="curve"/>
      <point x="-164" y="716" type="line"/>
    </contour>
  </outline>
</glyph>
<glyph name="uni02E7_uni02E6_uni02E6" format="2">
  <advance width="509"/>
  <outline>
    <contour>
      <point x="374" y="0" type="line"/>
      <point x="436" y="0" type="line"/>
      <point x="436" y="688" type="line"/>
      <point x="374" y="688" type="line"/>
      <point x="374" y="552" type="line"/>
      <point x="198" y="552" type="line"/>
      <point x="32" y="355" type="line"/>
      <point x="77" y="310" type="line"/>
      <point x="227" y="486" type="line"/>
      <point x="374" y="486" type="line"/>
    </contour>
  </outline>
</glyph>
<glyph name="uni03D0.alt" format="2">
  <advance width="661"/>
  <anchor x="331" y="-10" name="bottom"/>
  <anchor x="331" y="765" name="top"/>
  <outline>
    <contour>
      <point x="330" y="765" type="curve" smooth="yes"/>
      <point x="178" y="765"/>
      <point x="57" y="696"/>
      <point x="57" y="535" type="curve" smooth="yes"/>
      <point x="57" y="235" type="line" smooth="yes"/>
      <point x="57" y="70"/>
      <point x="154" y="-10"/>
      <point x="329" y="-10" type="curve" smooth="yes"/>
      <point x="503" y="-10"/>
      <point x="626" y="75"/>
      <point x="626" y="217" type="curve" smooth="yes"/>
      <point x="626" y="338"/>
      <point x="558" y="388"/>
      <point x="458" y="402" type="curve"/>
      <point x="458" y="406" type="line"/>
      <point x="531" y="420"/>
      <point x="579" y="476"/>
      <point x="579" y="572" type="curve" smooth="yes"/>
      <point x="579" y="701"/>
      <point x="473" y="765"/>
    </contour>
    <contour>
      <point x="322" y="623" type="curve" smooth="yes"/>
      <point x="356" y="623"/>
      <point x="379" y="594"/>
      <point x="379" y="544" type="curve" smooth="yes"/>
      <point x="379" y="497"/>
      <point x="366" y="461"/>
      <point x="339" y="461" type="curve" smooth="yes"/>
      <point x="328" y="461" type="line"/>
      <point x="328" y="319" type="line"/>
      <point x="347" y="319" type="line" smooth="yes"/>
      <point x="371" y="319"/>
      <point x="421" y="300"/>
      <point x="421" y="235" type="curve" smooth="yes"/>
      <point x="421" y="172"/>
      <point x="383" y="140"/>
      <point x="333" y="140" type="curve" smooth="yes"/>
      <point x="285" y="140"/>
      <point x="259" y="174"/>
      <point x="259" y="246" type="curve" smooth="yes"/>
      <point x="259" y="518" type="line" smooth="yes"/>
      <point x="259" y="602"/>
      <point x="287" y="623"/>
    </contour>
  </outline>
</glyph>
<glyph name="uni1FCD02C9" format="2">
  <advance width="376"/>
  <anchor x="191" y="523" name="_top"/>
  <anchor x="188" y="877" name="top"/>
  <outline>
    <contour>
      <point x="315" y="867" type="curve"/>
      <point x="161" y="867" type="line"/>
      <point x="161" y="857" type="line"/>
      <point x="181" y="814"/>
      <point x="226" y="745"/>
      <point x="256" y="706" type="curve"/>
      <point x="351" y="706" type="line"/>
      <point x="351" y="718" type="line"/>
      <point x="343" y="750"/>
      <point x="325" y="816"/>
    </contour>
    <contour>
      <point x="359" y="681" type="line"/>
      <point x="14" y="681" type="line"/>
      <point x="14" y="573" type="line"/>
      <point x="359" y="573" type="line"/>
    </contour>
    <contour>
      <point x="81" y="877" type="curve"/>
      <point x="44" y="877"/>
      <point x="23" y="858"/>
      <point x="23" y="829" type="curve"/>
      <point x="23" y="801"/>
      <point x="33" y="781"/>
      <point x="72" y="779" type="curve"/>
      <point x="72" y="755"/>
      <point x="44" y="744"/>
      <point x="16" y="741" type="curve"/>
      <point x="16" y="696" type="line"/>
      <point x="107" y="699"/>
      <point x="157" y="754"/>
      <point x="157" y="800" type="curve" smooth="yes"/>
      <point x="157" y="844"/>
      <point x="130" y="877"/>
    </contour>
  </outline>
</glyph>
<glyph name="uni1FCD0306" format="2">
  <advance width="411"/>
  <anchor x="206" y="543" name="_top"/>
  <anchor x="208" y="927" name="top"/>
  <outline>
    <contour>
      <point x="213" y="593" type="curve"/>
      <point x="325" y="593"/>
      <point x="376" y="650"/>
      <point x="383" y="731" type="curve"/>
      <point x="295" y="731" type="line"/>
      <point x="287" y="703"/>
      <point x="274" y="682"/>
      <point x="209" y="682" type="curve"/>
      <point x="154" y="682"/>
      <point x="135" y="707"/>
      <point x="122" y="731" type="curve"/>
      <point x="28" y="731" type="line"/>
      <point x="37" y="649"/>
      <point x="87" y="593"/>
    </contour>
    <contour>
      <point x="40" y="746" type="line"/>
      <point x="124" y="746"/>
      <point x="181" y="802"/>
      <point x="181" y="850" type="curve"/>
      <point x="181" y="894"/>
      <point x="152" y="927"/>
      <point x="104" y="927" type="curve"/>
      <point x="68" y="927"/>
      <point x="46" y="908"/>
      <point x="46" y="879" type="curve"/>
      <point x="46" y="851"/>
      <point x="56" y="831"/>
      <point x="95" y="829" type="curve"/>
      <point x="95" y="805"/>
      <point x="66" y="794"/>
      <point x="40" y="791" type="curve"/>
    </contour>
    <contour>
      <point x="280" y="756" type="curve"/>
      <point x="370" y="756" type="line"/>
      <point x="370" y="768" type="line"/>
      <point x="362" y="800"/>
      <point x="344" y="866"/>
      <point x="334" y="917" type="curve"/>
      <point x="180" y="917" type="line"/>
      <point x="180" y="907" type="line"/>
      <point x="200" y="864"/>
      <point x="248" y="793"/>
    </contour>
  </outline>
</glyph>
<glyph name="uni1FCE02C9" format="2">
  <advance width="376"/>
  <anchor x="191" y="523" name="_top"/>
  <anchor x="201" y="877" name="top"/>
  <outline>
    <contour>
      <point x="197" y="718" type="curve"/>
      <point x="197" y="706" type="line"/>
      <point x="288" y="706" type="line"/>
      <point x="319" y="743"/>
      <point x="366" y="814"/>
      <point x="386" y="857" type="curve"/>
      <point x="386" y="867" type="line"/>
      <point x="231" y="867" type="line"/>
      <point x="222" y="816"/>
      <point x="205" y="750"/>
    </contour>
    <contour>
      <point x="14" y="573" type="line"/>
      <point x="359" y="573" type="line"/>
      <point x="359" y="681" type="line"/>
      <point x="14" y="681" type="line"/>
    </contour>
    <contour>
      <point x="54" y="741" type="curve"/>
      <point x="54" y="696" type="line"/>
      <point x="139" y="696"/>
      <point x="196" y="752"/>
      <point x="196" y="800" type="curve" smooth="yes"/>
      <point x="196" y="844"/>
      <point x="169" y="877"/>
      <point x="120" y="877" type="curve" smooth="yes"/>
      <point x="82" y="877"/>
      <point x="61" y="858"/>
      <point x="61" y="829" type="curve" smooth="yes"/>
      <point x="61" y="801"/>
      <point x="72" y="781"/>
      <point x="110" y="779" type="curve"/>
      <point x="110" y="755"/>
      <point x="82" y="744"/>
    </contour>
  </outline>
</glyph>
<glyph name="uni1FCE0306" format="2">
  <advance width="405"/>
  <anchor x="214" y="543" name="_top"/>
  <anchor x="216" y="927" name="top"/>
  <outline>
    <contour>
      <point x="209" y="593" type="curve" smooth="yes"/>
      <point x="321" y="593"/>
      <point x="372" y="650"/>
      <point x="379" y="731" type="curve"/>
      <point x="291" y="731" type="line"/>
      <point x="283" y="703"/>
      <point x="270" y="682"/>
      <point x="205" y="682" type="curve" smooth="yes"/>
      <point x="150" y="682"/>
      <point x="131" y="707"/>
      <point x="118" y="731" type="curve"/>
      <point x="24" y="731" type="line"/>
      <point x="33" y="649"/>
      <point x="83" y="593"/>
    </contour>
    <contour>
      <point x="71" y="791" type="curve"/>
      <point x="71" y="746" type="line"/>
      <point x="156" y="746"/>
      <point x="213" y="802"/>
      <point x="213" y="850" type="curve" smooth="yes"/>
      <point x="213" y="894"/>
      <point x="184" y="927"/>
      <point x="136" y="927" type="curve" smooth="yes"/>
      <point x="100" y="927"/>
      <point x="78" y="908"/>
      <point x="78" y="879" type="curve" smooth="yes"/>
      <point x="78" y="851"/>
      <point x="88" y="831"/>
      <point x="127" y="829" type="curve"/>
      <point x="127" y="805"/>
      <point x="97" y="794"/>
    </contour>
    <contour>
      <point x="213" y="768" type="curve"/>
      <point x="213" y="756" type="line"/>
      <point x="304" y="756" type="line"/>
      <point x="335" y="793"/>
      <point x="383" y="864"/>
      <point x="403" y="907" type="curve"/>
      <point x="403" y="917" type="line"/>
      <point x="248" y="917" type="line"/>
      <point x="239" y="866"/>
      <point x="221" y="800"/>
    </contour>
  </outline>
</glyph>
<glyph name="uni1FDD02C9" format="2">
  <advance width="376"/>
  <anchor x="191" y="523" name="_top"/>
  <anchor x="188" y="877" name="top"/>
  <outline>
    <contour>
      <point x="323" y="867" type="curve"/>
      <point x="168" y="867" type="line"/>
      <point x="168" y="857" type="line"/>
      <point x="188" y="814"/>
      <point x="232" y="745"/>
      <point x="262" y="706" type="curve"/>
      <point x="357" y="706" type="line"/>
      <point x="357" y="718" type="line"/>
      <point x="349" y="750"/>
      <point x="332" y="816"/>
    </contour>
    <contour>
      <point x="359" y="681" type="line"/>
      <point x="14" y="681" type="line"/>
      <point x="14" y="573" type="line"/>
      <point x="359" y="573" type="line"/>
    </contour>
    <contour>
      <point x="94" y="877" type="curve" smooth="yes"/>
      <point x="46" y="877"/>
      <point x="18" y="844"/>
      <point x="18" y="800" type="curve" smooth="yes"/>
      <point x="18" y="752"/>
      <point x="74" y="696"/>
      <point x="159" y="696" type="curve"/>
      <point x="159" y="741" type="line"/>
      <point x="133" y="744"/>
      <point x="103" y="755"/>
      <point x="103" y="779" type="curve"/>
      <point x="142" y="781"/>
      <point x="152" y="801"/>
      <point x="152" y="829" type="curve" smooth="yes"/>
      <point x="152" y="858"/>
      <point x="131" y="877"/>
    </contour>
  </outline>
</glyph>
<glyph name="uni1FDD0306" format="2">
  <advance width="402"/>
  <anchor x="202" y="543" name="_top"/>
  <anchor x="204" y="927" name="top"/>
  <outline>
    <contour>
      <point x="209" y="593" type="curve" smooth="yes"/>
      <point x="321" y="593"/>
      <point x="372" y="650"/>
      <point x="379" y="731" type="curve"/>
      <point x="291" y="731" type="line"/>
      <point x="283" y="703"/>
      <point x="270" y="682"/>
      <point x="205" y="682" type="curve" smooth="yes"/>
      <point x="150" y="682"/>
      <point x="131" y="707"/>
      <point x="118" y="731" type="curve"/>
      <point x="24" y="731" type="line"/>
      <point x="33" y="649"/>
      <point x="83" y="593"/>
    </contour>
    <contour>
      <point x="175" y="746" type="curve"/>
      <point x="175" y="791" type="line"/>
      <point x="148" y="794"/>
      <point x="120" y="805"/>
      <point x="120" y="829" type="curve"/>
      <point x="159" y="831"/>
      <point x="169" y="851"/>
      <point x="169" y="879" type="curve" smooth="yes"/>
      <point x="169" y="908"/>
      <point x="147" y="927"/>
      <point x="111" y="927" type="curve" smooth="yes"/>
      <point x="61" y="927"/>
      <point x="34" y="894"/>
      <point x="34" y="850" type="curve" smooth="yes"/>
      <point x="34" y="802"/>
      <point x="91" y="746"/>
    </contour>
    <contour>
      <point x="269" y="756" type="curve"/>
      <point x="363" y="756" type="line"/>
      <point x="363" y="768" type="line"/>
      <point x="355" y="800"/>
      <point x="337" y="866"/>
      <point x="328" y="917" type="curve"/>
      <point x="173" y="917" type="line"/>
      <point x="173" y="907" type="line"/>
      <point x="193" y="864"/>
      <point x="239" y="795"/>
    </contour>
  </outline>
</glyph>
<glyph name="uni1FDE02C9" format="2">
  <advance width="376"/>
  <anchor x="194" y="523" name="_top"/>
  <anchor x="202" y="877" name="top"/>
  <outline>
    <contour>
      <point x="196" y="706" type="line"/>
      <point x="291" y="706" type="line"/>
      <point x="321" y="745"/>
      <point x="365" y="814"/>
      <point x="385" y="857" type="curve"/>
      <point x="385" y="867" type="line"/>
      <point x="230" y="867" type="line"/>
      <point x="221" y="816"/>
      <point x="204" y="750"/>
      <point x="196" y="718" type="curve"/>
    </contour>
    <contour>
      <point x="14" y="573" type="line"/>
      <point x="359" y="573" type="line"/>
      <point x="359" y="681" type="line"/>
      <point x="14" y="681" type="line"/>
    </contour>
    <contour>
      <point x="176" y="696" type="curve"/>
      <point x="176" y="741" type="line"/>
      <point x="149" y="744"/>
      <point x="121" y="755"/>
      <point x="121" y="779" type="curve"/>
      <point x="160" y="781"/>
      <point x="170" y="801"/>
      <point x="170" y="829" type="curve" smooth="yes"/>
      <point x="170" y="858"/>
      <point x="148" y="877"/>
      <point x="112" y="877" type="curve" smooth="yes"/>
      <point x="62" y="877"/>
      <point x="35" y="844"/>
      <point x="35" y="800" type="curve" smooth="yes"/>
      <point x="35" y="752"/>
      <point x="92" y="696"/>
    </contour>
  </outline>
</glyph>
<glyph name="uni1FDE0306" format="2">
  <advance width="405"/>
  <anchor x="213" y="543" name="_top"/>
  <anchor x="215" y="927" name="top"/>
  <outline>
    <contour>
      <point x="209" y="593" type="curve"/>
      <point x="321" y="593"/>
      <point x="372" y="650"/>
      <point x="379" y="731" type="curve"/>
      <point x="291" y="731" type="line"/>
      <point x="283" y="703"/>
      <point x="270" y="682"/>
      <point x="205" y="682" type="curve"/>
      <point x="150" y="682"/>
      <point x="131" y="707"/>
      <point x="118" y="731" type="curve"/>
      <point x="24" y="731" type="line"/>
      <point x="33" y="649"/>
      <point x="83" y="593"/>
    </contour>
    <contour>
      <point x="192" y="746" type="curve"/>
      <point x="192" y="791" type="line"/>
      <point x="165" y="794"/>
      <point x="137" y="805"/>
      <point x="137" y="829" type="curve"/>
      <point x="175" y="831"/>
      <point x="185" y="851"/>
      <point x="185" y="879" type="curve"/>
      <point x="185" y="908"/>
      <point x="164" y="927"/>
      <point x="127" y="927" type="curve"/>
      <point x="78" y="927"/>
      <point x="51" y="894"/>
      <point x="51" y="850" type="curve"/>
      <point x="51" y="802"/>
      <point x="107" y="746"/>
    </contour>
    <contour>
      <point x="212" y="756" type="line"/>
      <point x="306" y="756" type="line"/>
      <point x="336" y="795"/>
      <point x="382" y="864"/>
      <point x="402" y="907" type="curve"/>
      <point x="402" y="917" type="line"/>
      <point x="247" y="917" type="line"/>
      <point x="238" y="866"/>
      <point x="220" y="800"/>
      <point x="212" y="768" type="curve"/>
    </contour>
  </outline>
</glyph>
